<svg width="58" height="58" viewBox="0 0 58 58" fill="none" xmlns="http://www.w3.org/2000/svg">
<mask id="mask0_6039_14678" style="mask-type:alpha" maskUnits="userSpaceOnUse" x="0" y="0" width="58" height="58">
<rect width="58" height="58" fill="#D9D9D9"/>
</mask>
<g mask="url(#mask0_6039_14678)">
<path d="M23.9263 37.4609L29.0013 32.3859L34.0763 37.4609L37.4596 34.0776L32.3846 29.0026L37.4596 23.9276L34.0763 20.5443L29.0013 25.6193L23.9263 20.5443L20.543 23.9276L25.618 29.0026L20.543 34.0776L23.9263 37.4609ZM29.0013 53.1693C23.4027 51.7595 18.7808 48.5474 15.1357 43.5328C11.4905 38.5182 9.66797 32.9498 9.66797 26.8276V12.0859L29.0013 4.83594L48.3346 12.0859V26.8276C48.3346 32.9498 46.5121 38.5182 42.8669 43.5328C39.2218 48.5474 34.5999 51.7595 29.0013 53.1693ZM29.0013 48.0943C33.1902 46.7651 36.6541 44.1068 39.393 40.1193C42.1319 36.1318 43.5013 31.7012 43.5013 26.8276V15.4089L29.0013 9.97135L14.5013 15.4089V26.8276C14.5013 31.7012 15.8707 36.1318 18.6096 40.1193C21.3485 44.1068 24.8124 46.7651 29.0013 48.0943Z" fill="#FF5100"/>
</g>
</svg>
