<svg width="58" height="58" viewBox="0 0 58 58" fill="none" xmlns="http://www.w3.org/2000/svg">
<mask id="mask0_1198_828" style="mask-type:alpha" maskUnits="userSpaceOnUse" x="0" y="0" width="58" height="58">
<rect width="58" height="58" fill="#D9D9D9"/>
</mask>
<g mask="url(#mask0_1198_828)">
<path d="M25.6168 33.3499L20.421 28.1541C19.9779 27.711 19.4141 27.4895 18.7293 27.4895C18.0446 27.4895 17.4807 27.711 17.0377 28.1541C16.5946 28.5971 16.3731 29.161 16.3731 29.8458C16.3731 30.5305 16.5946 31.0944 17.0377 31.5374L23.9252 38.4249C24.4085 38.9083 24.9724 39.1499 25.6168 39.1499C26.2613 39.1499 26.8252 38.9083 27.3085 38.4249L40.9627 24.7708C41.4057 24.3277 41.6272 23.7638 41.6272 23.0791C41.6272 22.3944 41.4057 21.8305 40.9627 21.3874C40.5196 20.9444 39.9557 20.7228 39.271 20.7228C38.5863 20.7228 38.0224 20.9444 37.5793 21.3874L25.6168 33.3499ZM29.0002 53.1666C25.6571 53.1666 22.5154 52.5322 19.5752 51.2635C16.6349 49.9947 14.0772 48.2728 11.9022 46.0978C9.72725 43.9228 8.00537 41.3652 6.73662 38.4249C5.46787 35.4846 4.8335 32.343 4.8335 28.9999C4.8335 25.6569 5.46787 22.5152 6.73662 19.5749C8.00537 16.6346 9.72725 14.077 11.9022 11.902C14.0772 9.727 16.6349 8.00513 19.5752 6.73638C22.5154 5.46763 25.6571 4.83325 29.0002 4.83325C32.3432 4.83325 35.4849 5.46763 38.4252 6.73638C41.3654 8.00513 43.9231 9.727 46.0981 11.902C48.2731 14.077 49.995 16.6346 51.2637 19.5749C52.5325 22.5152 53.1668 25.6569 53.1668 28.9999C53.1668 32.343 52.5325 35.4846 51.2637 38.4249C49.995 41.3652 48.2731 43.9228 46.0981 46.0978C43.9231 48.2728 41.3654 49.9947 38.4252 51.2635C35.4849 52.5322 32.3432 53.1666 29.0002 53.1666ZM29.0002 48.3332C34.3974 48.3332 38.9689 46.4603 42.7147 42.7145C46.4606 38.9687 48.3335 34.3971 48.3335 28.9999C48.3335 23.6027 46.4606 19.0312 42.7147 15.2853C38.9689 11.5395 34.3974 9.66658 29.0002 9.66658C23.6029 9.66658 19.0314 11.5395 15.2856 15.2853C11.5397 19.0312 9.66683 23.6027 9.66683 28.9999C9.66683 34.3971 11.5397 38.9687 15.2856 42.7145C19.0314 46.4603 23.6029 48.3332 29.0002 48.3332Z" fill="#FFDD00"/>
</g>
</svg>
