<svg width="185" height="185" viewBox="0 0 185 185" fill="none" xmlns="http://www.w3.org/2000/svg">
<mask id="mask0_1198_825" style="mask-type:alpha" maskUnits="userSpaceOnUse" x="48" y="42" width="9" height="9">
<rect x="48" y="42" width="9" height="9" fill="#D9D9D9"/>
</mask>
<g mask="url(#mask0_1198_825)">
<path d="M52.5 49.875C52.3938 49.875 52.3047 49.8391 52.2328 49.7672C52.1609 49.6953 52.125 49.6062 52.125 49.5V47.4L50.6438 48.8906C50.5688 48.9656 50.4797 49.0031 50.3766 49.0031C50.2734 49.0031 50.1844 48.9656 50.1094 48.8906C50.0344 48.8156 49.9969 48.7266 49.9969 48.6234C49.9969 48.5203 50.0344 48.4312 50.1094 48.3562L51.6 46.875H49.5C49.3938 46.875 49.3047 46.8391 49.2328 46.7672C49.1609 46.6953 49.125 46.6062 49.125 46.5C49.125 46.3938 49.1609 46.3047 49.2328 46.2328C49.3047 46.1609 49.3938 46.125 49.5 46.125H51.6L50.1094 44.6438C50.0344 44.5688 49.9969 44.4797 49.9969 44.3766C49.9969 44.2734 50.0344 44.1844 50.1094 44.1094C50.1844 44.0344 50.2734 43.9969 50.3766 43.9969C50.4797 43.9969 50.5688 44.0344 50.6438 44.1094L52.125 45.6V43.5C52.125 43.3938 52.1609 43.3047 52.2328 43.2328C52.3047 43.1609 52.3938 43.125 52.5 43.125C52.6062 43.125 52.6953 43.1609 52.7672 43.2328C52.8391 43.3047 52.875 43.3938 52.875 43.5V45.6L54.3562 44.1094C54.4312 44.0344 54.5203 43.9969 54.6234 43.9969C54.7266 43.9969 54.8156 44.0344 54.8906 44.1094C54.9656 44.1844 55.0031 44.2734 55.0031 44.3766C55.0031 44.4797 54.9656 44.5688 54.8906 44.6438L53.4 46.125H55.5C55.6062 46.125 55.6953 46.1609 55.7672 46.2328C55.8391 46.3047 55.875 46.3938 55.875 46.5C55.875 46.6062 55.8391 46.6953 55.7672 46.7672C55.6953 46.8391 55.6062 46.875 55.5 46.875H53.4L54.8906 48.3562C54.9656 48.4312 55.0031 48.5203 55.0031 48.6234C55.0031 48.7266 54.9656 48.8156 54.8906 48.8906C54.8156 48.9656 54.7266 49.0031 54.6234 49.0031C54.5203 49.0031 54.4312 48.9656 54.3562 48.8906L52.875 47.4V49.5C52.875 49.6062 52.8391 49.6953 52.7672 49.7672C52.6953 49.8391 52.6062 49.875 52.5 49.875Z" fill="white"/>
</g>
<mask id="mask1_1198_825" style="mask-type:alpha" maskUnits="userSpaceOnUse" x="33" y="118" width="10" height="10">
<rect x="33" y="118" width="10" height="10" fill="#D9D9D9"/>
</mask>
<g mask="url(#mask1_1198_825)">
<path d="M38 126.75C37.8819 126.75 37.783 126.71 37.7031 126.63C37.6233 126.55 37.5833 126.451 37.5833 126.333V124L35.9375 125.656C35.8542 125.74 35.7552 125.781 35.6406 125.781C35.526 125.781 35.4271 125.74 35.3437 125.656C35.2604 125.573 35.2187 125.474 35.2187 125.359C35.2187 125.245 35.2604 125.146 35.3437 125.062L37 123.417H34.6667C34.5486 123.417 34.4497 123.377 34.3698 123.297C34.2899 123.217 34.25 123.118 34.25 123C34.25 122.882 34.2899 122.783 34.3698 122.703C34.4497 122.623 34.5486 122.583 34.6667 122.583H37L35.3437 120.938C35.2604 120.854 35.2187 120.755 35.2187 120.641C35.2187 120.526 35.2604 120.427 35.3437 120.344C35.4271 120.26 35.526 120.219 35.6406 120.219C35.7552 120.219 35.8542 120.26 35.9375 120.344L37.5833 122V119.667C37.5833 119.549 37.6233 119.45 37.7031 119.37C37.783 119.29 37.8819 119.25 38 119.25C38.1181 119.25 38.217 119.29 38.2969 119.37C38.3767 119.45 38.4167 119.549 38.4167 119.667V122L40.0625 120.344C40.1458 120.26 40.2448 120.219 40.3594 120.219C40.474 120.219 40.5729 120.26 40.6562 120.344C40.7396 120.427 40.7812 120.526 40.7812 120.641C40.7812 120.755 40.7396 120.854 40.6562 120.938L39 122.583H41.3333C41.4514 122.583 41.5503 122.623 41.6302 122.703C41.7101 122.783 41.75 122.882 41.75 123C41.75 123.118 41.7101 123.217 41.6302 123.297C41.5503 123.377 41.4514 123.417 41.3333 123.417H39L40.6562 125.062C40.7396 125.146 40.7812 125.245 40.7812 125.359C40.7812 125.474 40.7396 125.573 40.6562 125.656C40.5729 125.74 40.474 125.781 40.3594 125.781C40.2448 125.781 40.1458 125.74 40.0625 125.656L38.4167 124V126.333C38.4167 126.451 38.3767 126.55 38.2969 126.63C38.217 126.71 38.1181 126.75 38 126.75Z" fill="white"/>
</g>
<mask id="mask2_1198_825" style="mask-type:alpha" maskUnits="userSpaceOnUse" x="139" y="48" width="11" height="11">
<rect x="139" y="48" width="11" height="11" fill="#D9D9D9"/>
</mask>
<g mask="url(#mask2_1198_825)">
<path d="M144.5 57.625C144.37 57.625 144.261 57.5811 144.173 57.4932C144.086 57.4054 144.042 57.2965 144.042 57.1667V54.6L142.231 56.4219C142.14 56.5135 142.031 56.5594 141.905 56.5594C141.779 56.5594 141.67 56.5135 141.578 56.4219C141.486 56.3302 141.441 56.2214 141.441 56.0953C141.441 55.9693 141.486 55.8604 141.578 55.7688L143.4 53.9583H140.833C140.703 53.9583 140.595 53.9144 140.507 53.8266C140.419 53.7387 140.375 53.6299 140.375 53.5C140.375 53.3701 140.419 53.2613 140.507 53.1734C140.595 53.0856 140.703 53.0417 140.833 53.0417H143.4L141.578 51.2313C141.486 51.1396 141.441 51.0307 141.441 50.9047C141.441 50.7786 141.486 50.6698 141.578 50.5781C141.67 50.4865 141.779 50.4406 141.905 50.4406C142.031 50.4406 142.14 50.4865 142.231 50.5781L144.042 52.4V49.8333C144.042 49.7035 144.086 49.5946 144.173 49.5068C144.261 49.4189 144.37 49.375 144.5 49.375C144.63 49.375 144.739 49.4189 144.827 49.5068C144.914 49.5946 144.958 49.7035 144.958 49.8333V52.4L146.769 50.5781C146.86 50.4865 146.969 50.4406 147.095 50.4406C147.221 50.4406 147.33 50.4865 147.422 50.5781C147.514 50.6698 147.559 50.7786 147.559 50.9047C147.559 51.0307 147.514 51.1396 147.422 51.2313L145.6 53.0417H148.167C148.297 53.0417 148.405 53.0856 148.493 53.1734C148.581 53.2613 148.625 53.3701 148.625 53.5C148.625 53.6299 148.581 53.7387 148.493 53.8266C148.405 53.9144 148.297 53.9583 148.167 53.9583H145.6L147.422 55.7688C147.514 55.8604 147.559 55.9693 147.559 56.0953C147.559 56.2214 147.514 56.3302 147.422 56.4219C147.33 56.5135 147.221 56.5594 147.095 56.5594C146.969 56.5594 146.86 56.5135 146.769 56.4219L144.958 54.6V57.1667C144.958 57.2965 144.914 57.4054 144.827 57.4932C144.739 57.5811 144.63 57.625 144.5 57.625Z" fill="white"/>
</g>
<mask id="mask3_1198_825" style="mask-type:alpha" maskUnits="userSpaceOnUse" x="130" y="141" width="17" height="17">
<rect x="130" y="141" width="17" height="17" fill="#D9D9D9"/>
</mask>
<g mask="url(#mask3_1198_825)">
<path d="M138.5 155.875C138.299 155.875 138.131 155.807 137.995 155.671C137.86 155.536 137.792 155.367 137.792 155.167V151.2L134.994 154.016C134.852 154.157 134.684 154.228 134.489 154.228C134.294 154.228 134.126 154.157 133.984 154.016C133.843 153.874 133.772 153.706 133.772 153.511C133.772 153.316 133.843 153.148 133.984 153.006L136.8 150.208H132.833C132.633 150.208 132.464 150.14 132.329 150.005C132.193 149.869 132.125 149.701 132.125 149.5C132.125 149.299 132.193 149.131 132.329 148.995C132.464 148.86 132.633 148.792 132.833 148.792H136.8L133.984 145.994C133.843 145.852 133.772 145.684 133.772 145.489C133.772 145.294 133.843 145.126 133.984 144.984C134.126 144.843 134.294 144.772 134.489 144.772C134.684 144.772 134.852 144.843 134.994 144.984L137.792 147.8V143.833C137.792 143.633 137.86 143.464 137.995 143.329C138.131 143.193 138.299 143.125 138.5 143.125C138.701 143.125 138.869 143.193 139.005 143.329C139.14 143.464 139.208 143.633 139.208 143.833V147.8L142.006 144.984C142.148 144.843 142.316 144.772 142.511 144.772C142.706 144.772 142.874 144.843 143.016 144.984C143.157 145.126 143.228 145.294 143.228 145.489C143.228 145.684 143.157 145.852 143.016 145.994L140.2 148.792H144.167C144.367 148.792 144.536 148.86 144.671 148.995C144.807 149.131 144.875 149.299 144.875 149.5C144.875 149.701 144.807 149.869 144.671 150.005C144.536 150.14 144.367 150.208 144.167 150.208H140.2L143.016 153.006C143.157 153.148 143.228 153.316 143.228 153.511C143.228 153.706 143.157 153.874 143.016 154.016C142.874 154.157 142.706 154.228 142.511 154.228C142.316 154.228 142.148 154.157 142.006 154.016L139.208 151.2V155.167C139.208 155.367 139.14 155.536 139.005 155.671C138.869 155.807 138.701 155.875 138.5 155.875Z" fill="white"/>
</g>
<mask id="mask4_1198_825" style="mask-type:alpha" maskUnits="userSpaceOnUse" x="82" y="9" width="6" height="6">
<rect x="82" y="9" width="6" height="6" fill="#D9D9D9"/>
</mask>
<g mask="url(#mask4_1198_825)">
<path d="M85 14.25C84.9292 14.25 84.8698 14.226 84.8219 14.1781C84.774 14.1302 84.75 14.0708 84.75 14V12.6L83.7625 13.5938C83.7125 13.6438 83.6531 13.6688 83.5844 13.6688C83.5156 13.6688 83.4563 13.6438 83.4062 13.5938C83.3562 13.5437 83.3313 13.4844 83.3313 13.4156C83.3313 13.3469 83.3562 13.2875 83.4062 13.2375L84.4 12.25H83C82.9292 12.25 82.8698 12.226 82.8219 12.1781C82.774 12.1302 82.75 12.0708 82.75 12C82.75 11.9292 82.774 11.8698 82.8219 11.8219C82.8698 11.774 82.9292 11.75 83 11.75H84.4L83.4062 10.7625C83.3562 10.7125 83.3313 10.6531 83.3313 10.5844C83.3313 10.5156 83.3562 10.4563 83.4062 10.4062C83.4563 10.3562 83.5156 10.3313 83.5844 10.3313C83.6531 10.3313 83.7125 10.3562 83.7625 10.4062L84.75 11.4V10C84.75 9.92917 84.774 9.86979 84.8219 9.82187C84.8698 9.77396 84.9292 9.75 85 9.75C85.0708 9.75 85.1302 9.77396 85.1781 9.82187C85.226 9.86979 85.25 9.92917 85.25 10V11.4L86.2375 10.4062C86.2875 10.3562 86.3469 10.3313 86.4156 10.3313C86.4844 10.3313 86.5437 10.3562 86.5938 10.4062C86.6438 10.4563 86.6688 10.5156 86.6688 10.5844C86.6688 10.6531 86.6438 10.7125 86.5938 10.7625L85.6 11.75H87C87.0708 11.75 87.1302 11.774 87.1781 11.8219C87.226 11.8698 87.25 11.9292 87.25 12C87.25 12.0708 87.226 12.1302 87.1781 12.1781C87.1302 12.226 87.0708 12.25 87 12.25H85.6L86.5938 13.2375C86.6438 13.2875 86.6688 13.3469 86.6688 13.4156C86.6688 13.4844 86.6438 13.5437 86.5938 13.5938C86.5437 13.6438 86.4844 13.6688 86.4156 13.6688C86.3469 13.6688 86.2875 13.6438 86.2375 13.5938L85.25 12.6V14C85.25 14.0708 85.226 14.1302 85.1781 14.1781C85.1302 14.226 85.0708 14.25 85 14.25Z" fill="white"/>
</g>
</svg>
