<svg xmlns="http://www.w3.org/2000/svg" xmlns:xlink="http://www.w3.org/1999/xlink" width="500" zoomAndPan="magnify" viewBox="0 0 375 374.999991" height="500" preserveAspectRatio="xMidYMid meet" version="1.0"><defs><g/><clipPath id="8a1ca28329"><path d="M 13.03125 124 L 248 124 L 248 364.03125 L 13.03125 364.03125 Z M 13.03125 124 " clip-rule="nonzero"/></clipPath><clipPath id="b5fdd2e827"><path d="M 165 13.03125 L 364.03125 13.03125 L 364.03125 259 L 165 259 Z M 165 13.03125 " clip-rule="nonzero"/></clipPath></defs><rect x="-37.5" width="450" fill="#ffffff" y="-37.499999" height="449.999989" fill-opacity="1"/><rect x="-37.5" width="450" fill="#31669c" y="-37.499999" height="449.999989" fill-opacity="1"/><g clip-path="url(#8a1ca28329)"><path fill="#ffffff" d="M 243.976562 183.402344 L 132.792969 124.886719 C 131.9375 124.4375 131.03125 124.210938 130.066406 124.210938 C 129.101562 124.210938 128.191406 124.4375 127.339844 124.886719 L 36.4375 172.730469 L 36.4375 171.027344 L 24.734375 171.027344 L 24.734375 178.890625 L 16.15625 183.402344 C 15.683594 183.652344 15.253906 183.960938 14.867188 184.324219 C 14.476562 184.691406 14.148438 185.101562 13.871094 185.558594 C 13.597656 186.015625 13.386719 186.5 13.242188 187.011719 C 13.101562 187.527344 13.03125 188.050781 13.03125 188.582031 L 13.03125 358.285156 C 13.03125 358.667969 13.066406 359.046875 13.140625 359.425781 C 13.21875 359.800781 13.328125 360.167969 13.476562 360.523438 C 13.621094 360.878906 13.800781 361.214844 14.015625 361.535156 C 14.230469 361.855469 14.472656 362.148438 14.742188 362.421875 C 15.015625 362.691406 15.3125 362.9375 15.628906 363.148438 C 15.949219 363.363281 16.289062 363.542969 16.640625 363.691406 C 16.996094 363.835938 17.363281 363.949219 17.738281 364.023438 C 18.117188 364.097656 18.496094 364.136719 18.882812 364.136719 L 241.25 364.136719 C 241.632812 364.136719 242.011719 364.097656 242.390625 364.023438 C 242.765625 363.949219 243.132812 363.835938 243.488281 363.691406 C 243.84375 363.542969 244.179688 363.363281 244.5 363.148438 C 244.820312 362.9375 245.113281 362.691406 245.386719 362.421875 C 245.65625 362.148438 245.902344 361.855469 246.113281 361.535156 C 246.328125 361.214844 246.507812 360.878906 246.65625 360.523438 C 246.800781 360.167969 246.914062 359.800781 246.988281 359.425781 C 247.0625 359.046875 247.101562 358.667969 247.101562 358.285156 L 247.101562 188.582031 C 247.101562 188.050781 247.027344 187.527344 246.886719 187.011719 C 246.742188 186.5 246.535156 186.015625 246.257812 185.558594 C 245.984375 185.101562 245.652344 184.691406 245.265625 184.324219 C 244.875 183.960938 244.445312 183.652344 243.976562 183.402344 Z M 104.863281 345.410156 L 115.890625 341.003906 C 116.890625 341.945312 117.976562 342.773438 119.152344 343.484375 C 121.175781 344.621094 123.320312 345.429688 125.589844 345.914062 L 127.8125 352.433594 L 100.804688 352.433594 Z M 165.175781 301.660156 C 162.804688 303.714844 160.203125 305.402344 157.363281 306.734375 C 154.527344 308.066406 151.5625 308.988281 148.46875 309.496094 L 146.292969 298.011719 C 150.304688 297.347656 153.902344 295.75 157.082031 293.210938 Z M 157.996094 268.75 C 162.007812 268.089844 165.605469 266.492188 168.785156 263.953125 L 176.878906 272.402344 C 174.507812 274.453125 171.90625 276.144531 169.066406 277.476562 C 166.230469 278.808594 163.265625 279.726562 160.171875 280.238281 Z M 129.90625 283.410156 L 127.722656 271.875 C 131.734375 271.214844 135.332031 269.613281 138.507812 267.078125 L 146.578125 275.550781 C 144.210938 277.601562 141.605469 279.289062 138.769531 280.621094 C 135.933594 281.949219 132.96875 282.871094 129.878906 283.382812 Z M 235.398438 352.433594 L 140.183594 352.433594 L 138.273438 346.878906 L 138.71875 346.878906 C 139.835938 346.878906 140.949219 346.824219 142.054688 346.824219 C 143.53125 346.664062 144.972656 346.332031 146.371094 345.832031 C 147.769531 345.328125 149.089844 344.671875 150.335938 343.859375 C 151.578125 343.046875 152.710938 342.097656 153.734375 341.015625 C 154.753906 339.9375 155.632812 338.75 156.375 337.464844 C 156.835938 336.878906 157.28125 336.292969 157.726562 335.75 C 160.023438 332.652344 162.835938 330.136719 166.171875 328.199219 C 185.605469 319.785156 191.292969 304.3125 193.847656 283.671875 C 194.210938 273.574219 193.503906 263.550781 191.726562 253.601562 L 191.683594 253.292969 C 193.820312 253.789062 195.980469 254.0625 198.171875 254.105469 C 199.121094 254.171875 200.0625 254.132812 201 253.992188 C 201.941406 253.851562 202.851562 253.605469 203.734375 253.265625 C 204.621094 252.921875 205.457031 252.484375 206.246094 251.957031 C 207.035156 251.425781 207.753906 250.820312 208.410156 250.132812 C 212.984375 244.757812 210.484375 237.0625 207.046875 230.5625 L 208.4375 229.394531 C 210.429688 229.375 212.339844 228.980469 214.175781 228.210938 C 216.011719 227.4375 217.632812 226.34375 219.035156 224.933594 C 219.785156 223.886719 220.414062 222.773438 220.925781 221.59375 C 221.433594 220.414062 221.816406 219.195312 222.066406 217.933594 C 222.3125 216.671875 222.425781 215.398438 222.402344 214.109375 C 222.378906 212.824219 222.222656 211.554688 221.925781 210.304688 C 221.859375 209.113281 221.902344 207.925781 222.050781 206.742188 C 222.382812 205.238281 222.410156 203.734375 222.128906 202.222656 C 221.84375 200.710938 221.277344 199.316406 220.421875 198.039062 C 219.367188 196.90625 218.144531 195.996094 216.757812 195.304688 C 215.371094 194.613281 213.90625 194.191406 212.363281 194.03125 C 212.210938 192.867188 211.84375 191.777344 211.253906 190.765625 C 210.664062 189.75 209.902344 188.886719 208.96875 188.179688 C 207.113281 187.070312 205.113281 186.351562 202.972656 186.019531 C 200.835938 185.6875 198.710938 185.769531 196.605469 186.265625 C 194.746094 185.800781 192.863281 185.6875 190.960938 185.929688 C 189.058594 186.167969 187.261719 186.746094 185.574219 187.65625 C 184.6875 188.164062 183.863281 188.757812 183.101562 189.445312 C 182.34375 190.128906 181.664062 190.890625 181.070312 191.722656 C 180.476562 192.554688 179.980469 193.441406 179.578125 194.382812 C 179.175781 195.324219 178.882812 196.296875 178.691406 197.300781 C 177.335938 197.417969 175.992188 197.625 174.664062 197.929688 C 173.335938 198.230469 172.035156 198.625 170.761719 199.105469 C 169.488281 199.589844 168.253906 200.160156 167.058594 200.8125 C 165.863281 201.46875 164.722656 202.203125 163.628906 203.015625 C 162.535156 203.828125 161.503906 204.714844 160.535156 205.671875 C 159.566406 206.628906 158.667969 207.648438 157.839844 208.730469 C 157.011719 209.8125 156.261719 210.945312 155.589844 212.132812 C 154.921875 213.316406 154.335938 214.542969 153.835938 215.8125 C 153.167969 217.492188 152.664062 219.234375 152.148438 220.976562 C 151.695312 222.738281 151.109375 224.457031 150.394531 226.128906 C 143.957031 239.863281 117.625 257.199219 103.3125 257.199219 L 103.148438 257.199219 C 102.425781 257.1875 101.722656 257.0625 101.042969 256.820312 C 100.363281 256.578125 99.738281 256.234375 99.167969 255.785156 C 98.601562 255.339844 98.121094 254.816406 97.722656 254.210938 C 97.328125 253.605469 97.039062 252.953125 96.855469 252.253906 C 94.285156 242.765625 90.296875 233.914062 84.894531 225.699219 C 76.230469 215.449219 66.28125 214.21875 55.695312 212.914062 L 54.625 212.785156 C 53.769531 212.664062 52.910156 212.609375 52.050781 212.628906 C 51.1875 212.644531 50.332031 212.730469 49.480469 212.882812 C 48.632812 213.039062 47.800781 213.257812 46.988281 213.546875 C 46.175781 213.835938 45.390625 214.1875 44.632812 214.601562 C 43.875 215.015625 43.15625 215.488281 42.476562 216.019531 C 41.796875 216.546875 41.164062 217.128906 40.574219 217.761719 C 39.988281 218.394531 39.457031 219.070312 38.976562 219.789062 C 38.5 220.507812 38.082031 221.257812 37.722656 222.042969 C 37.082031 223.523438 36.679688 225.066406 36.515625 226.671875 C 36.355469 228.28125 36.4375 229.871094 36.765625 231.453125 L 39.414062 243.382812 C 38.730469 244.804688 38.160156 246.265625 37.707031 247.773438 C 37.25 249.28125 36.917969 250.816406 36.703125 252.378906 C 36.488281 253.9375 36.402344 255.507812 36.433594 257.082031 C 36.46875 258.65625 36.625 260.21875 36.90625 261.769531 C 37.183594 263.320312 37.585938 264.839844 38.105469 266.324219 C 38.625 267.8125 39.253906 269.25 40 270.636719 C 40.746094 272.027344 41.597656 273.347656 42.550781 274.601562 C 43.503906 275.855469 44.550781 277.027344 45.6875 278.113281 C 45.363281 280.597656 45.519531 283.046875 46.152344 285.46875 C 46.789062 287.890625 47.855469 290.101562 49.359375 292.105469 C 50.765625 294.171875 52.46875 295.953125 54.476562 297.445312 C 56.480469 298.941406 58.675781 300.066406 61.0625 300.820312 C 61.390625 302.683594 61.894531 304.5 62.566406 306.265625 C 63.238281 308.035156 64.070312 309.726562 65.0625 311.339844 C 66.050781 312.949219 67.183594 314.457031 68.457031 315.855469 C 69.730469 317.253906 71.125 318.523438 72.636719 319.660156 C 76.996094 322.84375 81.699219 325.398438 86.738281 327.328125 C 87.5 327.617188 88.28125 327.847656 89.078125 328.019531 L 89.078125 334.875 C 89.078125 336.445312 89.382812 337.953125 89.992188 339.398438 C 90.601562 340.84375 91.46875 342.113281 92.589844 343.210938 L 87.28125 352.433594 L 24.734375 352.433594 L 24.734375 192.09375 L 130.066406 136.675781 L 235.398438 192.09375 Z M 184.707031 218.167969 C 184.707031 217.65625 184.804688 217.160156 185.003906 216.683594 C 185.199219 216.207031 185.480469 215.785156 185.84375 215.421875 C 186.207031 215.058594 186.625 214.777344 187.101562 214.578125 C 187.578125 214.382812 188.070312 214.285156 188.585938 214.285156 C 189.101562 214.285156 189.597656 214.382812 190.070312 214.578125 C 190.546875 214.773438 190.96875 215.054688 191.332031 215.417969 C 191.695312 215.785156 191.976562 216.203125 192.171875 216.679688 C 192.371094 217.15625 192.46875 217.648438 192.46875 218.164062 C 192.46875 218.679688 192.367188 219.175781 192.171875 219.652344 C 191.972656 220.125 191.695312 220.546875 191.328125 220.910156 C 190.964844 221.273438 190.542969 221.554688 190.070312 221.75 C 189.59375 221.945312 189.097656 222.042969 188.582031 222.042969 C 188.070312 222.042969 187.574219 221.945312 187.101562 221.75 C 186.625 221.550781 186.207031 221.273438 185.84375 220.910156 C 185.480469 220.546875 185.199219 220.125 185.003906 219.652344 C 184.808594 219.175781 184.707031 218.683594 184.707031 218.167969 Z M 184.707031 218.167969 " fill-opacity="1" fill-rule="nonzero"/></g><path fill="#ffffff" d="M 63.484375 95.667969 C 64.132812 94.796875 64.746094 93.898438 65.324219 92.976562 C 65.902344 92.054688 66.441406 91.113281 66.941406 90.148438 C 67.445312 89.183594 67.90625 88.199219 68.332031 87.199219 C 68.753906 86.199219 69.136719 85.179688 69.480469 84.148438 C 69.820312 83.117188 70.121094 82.070312 70.378906 81.015625 C 70.636719 79.960938 70.851562 78.894531 71.027344 77.820312 C 71.199219 76.746094 71.328125 75.667969 71.417969 74.585938 C 71.503906 73.5 71.546875 72.414062 71.546875 71.328125 C 71.546875 70.242188 71.503906 69.15625 71.417969 68.070312 C 71.328125 66.988281 71.199219 65.910156 71.027344 64.835938 C 70.851562 63.761719 70.636719 62.695312 70.378906 61.640625 C 70.121094 60.582031 69.820312 59.539062 69.480469 58.507812 C 69.136719 57.476562 68.753906 56.457031 68.332031 55.457031 C 67.90625 54.453125 67.445312 53.472656 66.941406 52.507812 C 66.441406 51.542969 65.902344 50.601562 65.324219 49.679688 C 64.746094 48.757812 64.132812 47.859375 63.484375 46.988281 L 54.078125 53.957031 C 55.007812 55.203125 55.832031 56.515625 56.550781 57.894531 C 57.269531 59.273438 57.875 60.703125 58.363281 62.175781 C 58.855469 63.652344 59.222656 65.15625 59.472656 66.691406 C 59.71875 68.226562 59.84375 69.773438 59.84375 71.328125 C 59.84375 72.882812 59.71875 74.429688 59.472656 75.960938 C 59.222656 77.496094 58.855469 79.003906 58.363281 80.480469 C 57.875 81.953125 57.269531 83.382812 56.550781 84.761719 C 55.832031 86.140625 55.007812 87.453125 54.078125 88.699219 Z M 63.484375 95.667969 " fill-opacity="1" fill-rule="nonzero"/><path fill="#ffffff" d="M 71.4375 104.539062 L 80.511719 111.925781 C 81.667969 110.503906 82.765625 109.035156 83.796875 107.523438 C 84.828125 106.007812 85.792969 104.453125 86.691406 102.855469 C 87.589844 101.257812 88.417969 99.628906 89.175781 97.960938 C 89.9375 96.292969 90.621094 94.597656 91.238281 92.871094 C 91.851562 91.144531 92.390625 89.394531 92.855469 87.621094 C 93.320312 85.847656 93.707031 84.0625 94.019531 82.253906 C 94.332031 80.449219 94.5625 78.632812 94.71875 76.808594 C 94.878906 74.984375 94.957031 73.15625 94.957031 71.320312 C 94.957031 69.488281 94.878906 67.660156 94.71875 65.835938 C 94.5625 64.011719 94.332031 62.195312 94.019531 60.390625 C 93.707031 58.582031 93.320312 56.792969 92.855469 55.023438 C 92.390625 53.25 91.851562 51.5 91.238281 49.773438 C 90.621094 48.046875 89.9375 46.351562 89.175781 44.683594 C 88.417969 43.015625 87.589844 41.382812 86.691406 39.789062 C 85.792969 38.191406 84.828125 36.636719 83.796875 35.121094 C 82.765625 33.609375 81.667969 32.140625 80.511719 30.71875 L 71.4375 38.121094 C 73.34375 40.445312 75.035156 42.914062 76.515625 45.527344 C 77.992188 48.140625 79.234375 50.863281 80.242188 53.695312 C 81.25 56.527344 82.003906 59.421875 82.511719 62.382812 C 83.015625 65.34375 83.261719 68.328125 83.25 71.332031 C 83.246094 74.332031 82.992188 77.3125 82.476562 80.273438 C 81.964844 83.230469 81.207031 86.125 80.199219 88.953125 C 79.195312 91.78125 77.957031 94.503906 76.484375 97.121094 C 75.011719 99.738281 73.332031 102.210938 71.4375 104.539062 Z M 71.4375 104.539062 " fill-opacity="1" fill-rule="nonzero"/><path fill="#ffffff" d="M 88.632812 120.433594 L 97.558594 127.992188 C 99.222656 126.035156 100.792969 124.003906 102.277344 121.90625 C 103.761719 119.808594 105.152344 117.652344 106.445312 115.429688 C 107.738281 113.210938 108.933594 110.9375 110.027344 108.613281 C 111.121094 106.289062 112.113281 103.921875 112.996094 101.507812 C 113.882812 99.097656 114.660156 96.648438 115.332031 94.167969 C 116 91.6875 116.5625 89.183594 117.011719 86.652344 C 117.460938 84.125 117.796875 81.578125 118.023438 79.019531 C 118.25 76.460938 118.363281 73.894531 118.363281 71.324219 C 118.363281 68.753906 118.25 66.191406 118.023438 63.632812 C 117.796875 61.070312 117.460938 58.527344 117.011719 55.996094 C 116.5625 53.46875 116 50.960938 115.332031 48.480469 C 114.660156 46 113.882812 43.554688 112.996094 41.140625 C 112.113281 38.730469 111.121094 36.359375 110.027344 34.035156 C 108.933594 31.710938 107.738281 29.4375 106.445312 27.21875 C 105.152344 25 103.761719 22.839844 102.277344 20.742188 C 100.792969 18.644531 99.222656 16.617188 97.558594 14.65625 L 88.632812 22.222656 C 90.074219 23.921875 91.4375 25.679688 92.722656 27.496094 C 94.007812 29.3125 95.214844 31.183594 96.335938 33.109375 C 97.457031 35.03125 98.488281 37 99.4375 39.015625 C 100.386719 41.03125 101.242188 43.082031 102.011719 45.171875 C 102.777344 47.265625 103.453125 49.382812 104.03125 51.535156 C 104.613281 53.683594 105.097656 55.855469 105.488281 58.046875 C 105.878906 60.238281 106.167969 62.441406 106.367188 64.660156 C 106.5625 66.878906 106.660156 69.101562 106.660156 71.328125 C 106.660156 73.554688 106.5625 75.777344 106.367188 77.996094 C 106.167969 80.210938 105.878906 82.417969 105.488281 84.609375 C 105.097656 86.800781 104.613281 88.972656 104.03125 91.121094 C 103.453125 93.273438 102.777344 95.390625 102.011719 97.480469 C 101.242188 99.574219 100.386719 101.625 99.4375 103.640625 C 98.488281 105.65625 97.457031 107.625 96.335938 109.546875 C 95.214844 111.472656 94.007812 113.34375 92.722656 115.160156 C 91.4375 116.976562 90.074219 118.734375 88.632812 120.433594 Z M 88.632812 120.433594 " fill-opacity="1" fill-rule="nonzero"/><path fill="#ffffff" d="M 299.765625 49.601562 C 299.144531 49.605469 298.523438 49.636719 297.902344 49.695312 C 297.28125 49.757812 296.667969 49.851562 296.058594 49.972656 C 295.445312 50.09375 294.84375 50.246094 294.246094 50.425781 C 293.652344 50.609375 293.066406 50.820312 292.492188 51.058594 C 291.917969 51.296875 291.355469 51.5625 290.804688 51.855469 C 290.257812 52.148438 289.722656 52.46875 289.207031 52.816406 C 288.6875 53.160156 288.1875 53.53125 287.707031 53.925781 C 287.226562 54.324219 286.765625 54.742188 286.324219 55.179688 C 285.882812 55.621094 285.46875 56.082031 285.070312 56.5625 C 284.675781 57.042969 284.304688 57.542969 283.960938 58.0625 C 283.613281 58.578125 283.292969 59.113281 283 59.660156 C 282.707031 60.210938 282.441406 60.773438 282.203125 61.347656 C 281.964844 61.921875 281.753906 62.507812 281.570312 63.101562 C 281.390625 63.699219 281.238281 64.300781 281.117188 64.914062 C 280.996094 65.523438 280.902344 66.136719 280.839844 66.757812 C 280.78125 67.378906 280.75 68 280.746094 68.621094 L 280.746094 87.933594 C 280.074219 88.5625 279.433594 89.226562 278.828125 89.921875 C 278.222656 90.617188 277.652344 91.339844 277.117188 92.09375 C 276.582031 92.84375 276.085938 93.621094 275.628906 94.421875 C 275.167969 95.222656 274.753906 96.046875 274.378906 96.886719 C 274.003906 97.730469 273.667969 98.589844 273.378906 99.464844 C 273.089844 100.34375 272.84375 101.230469 272.640625 102.128906 C 272.441406 103.03125 272.285156 103.9375 272.171875 104.855469 C 272.0625 105.769531 271.996094 106.691406 271.976562 107.613281 C 271.957031 108.535156 271.984375 109.457031 272.054688 110.375 C 272.128906 111.296875 272.246094 112.210938 272.40625 113.117188 C 272.570312 114.027344 272.777344 114.925781 273.03125 115.8125 C 273.285156 116.699219 273.582031 117.570312 273.917969 118.429688 C 274.257812 119.289062 274.640625 120.125 275.0625 120.945312 C 275.488281 121.765625 275.949219 122.5625 276.453125 123.335938 C 276.953125 124.113281 277.492188 124.859375 278.070312 125.578125 C 278.648438 126.300781 279.257812 126.988281 279.902344 127.648438 C 280.550781 128.308594 281.226562 128.933594 281.933594 129.523438 C 282.640625 130.117188 283.375 130.671875 284.140625 131.191406 C 284.902344 131.710938 285.691406 132.1875 286.5 132.628906 C 287.3125 133.070312 288.140625 133.46875 288.992188 133.828125 C 289.84375 134.183594 290.710938 134.5 291.589844 134.769531 C 292.472656 135.042969 293.367188 135.269531 294.269531 135.449219 C 295.175781 135.632812 296.085938 135.769531 297.003906 135.863281 C 297.921875 135.953125 298.84375 136 299.765625 136 C 300.6875 136 301.609375 135.953125 302.527344 135.863281 C 303.445312 135.769531 304.355469 135.632812 305.261719 135.449219 C 306.164062 135.269531 307.058594 135.042969 307.941406 134.769531 C 308.824219 134.5 309.6875 134.183594 310.539062 133.828125 C 311.390625 133.46875 312.21875 133.070312 313.03125 132.628906 C 313.84375 132.1875 314.628906 131.710938 315.390625 131.191406 C 316.15625 130.671875 316.890625 130.117188 317.597656 129.523438 C 318.304688 128.933594 318.984375 128.308594 319.628906 127.648438 C 320.273438 126.988281 320.886719 126.300781 321.460938 125.578125 C 322.039062 124.859375 322.578125 124.113281 323.082031 123.335938 C 323.582031 122.5625 324.046875 121.765625 324.46875 120.945312 C 324.890625 120.125 325.273438 119.289062 325.613281 118.429688 C 325.953125 117.570312 326.246094 116.699219 326.5 115.8125 C 326.753906 114.925781 326.960938 114.027344 327.125 113.117188 C 327.285156 112.210938 327.40625 111.296875 327.476562 110.375 C 327.550781 109.457031 327.574219 108.535156 327.554688 107.613281 C 327.535156 106.691406 327.46875 105.769531 327.359375 104.855469 C 327.25 103.9375 327.09375 103.03125 326.890625 102.128906 C 326.6875 101.230469 326.441406 100.34375 326.152344 99.464844 C 325.863281 98.589844 325.53125 97.730469 325.15625 96.886719 C 324.777344 96.046875 324.363281 95.222656 323.90625 94.421875 C 323.449219 93.621094 322.953125 92.84375 322.417969 92.09375 C 321.882812 91.339844 321.3125 90.617188 320.703125 89.921875 C 320.097656 89.226562 319.457031 88.5625 318.785156 87.933594 L 318.785156 68.621094 C 318.785156 68 318.753906 67.378906 318.691406 66.757812 C 318.628906 66.136719 318.535156 65.523438 318.414062 64.914062 C 318.292969 64.300781 318.140625 63.699219 317.960938 63.105469 C 317.777344 62.507812 317.570312 61.921875 317.332031 61.347656 C 317.089844 60.773438 316.824219 60.210938 316.53125 59.660156 C 316.238281 59.113281 315.917969 58.578125 315.570312 58.0625 C 315.226562 57.542969 314.855469 57.042969 314.460938 56.5625 C 314.066406 56.082031 313.648438 55.621094 313.207031 55.179688 C 312.765625 54.742188 312.304688 54.324219 311.824219 53.925781 C 311.34375 53.53125 310.84375 53.160156 310.328125 52.816406 C 309.808594 52.46875 309.277344 52.148438 308.726562 51.855469 C 308.175781 51.5625 307.617188 51.296875 307.039062 51.058594 C 306.464844 50.820312 305.878906 50.609375 305.285156 50.425781 C 304.6875 50.246094 304.085938 50.09375 303.476562 49.972656 C 302.863281 49.851562 302.25 49.757812 301.628906 49.695312 C 301.011719 49.636719 300.386719 49.605469 299.765625 49.601562 Z M 299.765625 118.363281 C 299.191406 118.363281 298.617188 118.316406 298.050781 118.21875 C 297.480469 118.125 296.925781 117.980469 296.382812 117.789062 C 295.835938 117.601562 295.3125 117.367188 294.808594 117.085938 C 294.304688 116.808594 293.828125 116.488281 293.375 116.128906 C 292.925781 115.769531 292.507812 115.375 292.125 114.945312 C 291.742188 114.515625 291.398438 114.054688 291.089844 113.566406 C 290.785156 113.078125 290.523438 112.570312 290.304688 112.035156 C 290.082031 111.503906 289.910156 110.957031 289.785156 110.394531 C 289.65625 109.832031 289.578125 109.261719 289.546875 108.6875 C 289.515625 108.109375 289.535156 107.539062 289.601562 106.964844 C 289.667969 106.390625 289.78125 105.828125 289.945312 105.277344 C 290.105469 104.722656 290.3125 104.1875 290.566406 103.667969 C 290.816406 103.152344 291.109375 102.660156 291.445312 102.191406 C 291.78125 101.722656 292.15625 101.285156 292.566406 100.878906 C 292.976562 100.476562 293.417969 100.105469 293.886719 99.777344 C 294.359375 99.445312 294.855469 99.15625 295.378906 98.910156 L 295.378906 73.011719 L 304.15625 73.011719 L 304.15625 98.910156 C 304.675781 99.15625 305.171875 99.445312 305.644531 99.777344 C 306.117188 100.105469 306.558594 100.476562 306.964844 100.878906 C 307.375 101.285156 307.75 101.722656 308.085938 102.191406 C 308.421875 102.660156 308.714844 103.152344 308.96875 103.667969 C 309.21875 104.1875 309.425781 104.722656 309.589844 105.277344 C 309.75 105.828125 309.863281 106.390625 309.929688 106.964844 C 309.996094 107.539062 310.015625 108.113281 309.984375 108.6875 C 309.953125 109.261719 309.875 109.832031 309.75 110.394531 C 309.621094 110.957031 309.449219 111.503906 309.230469 112.035156 C 309.007812 112.570312 308.746094 113.078125 308.441406 113.566406 C 308.136719 114.054688 307.789062 114.515625 307.40625 114.945312 C 307.023438 115.375 306.605469 115.769531 306.15625 116.128906 C 305.707031 116.488281 305.226562 116.808594 304.722656 117.085938 C 304.21875 117.367188 303.695312 117.601562 303.152344 117.789062 C 302.605469 117.980469 302.050781 118.125 301.484375 118.21875 C 300.914062 118.316406 300.34375 118.363281 299.765625 118.363281 Z M 299.765625 118.363281 " fill-opacity="1" fill-rule="nonzero"/><path fill="#ffffff" d="M 230.714844 53.992188 L 239.492188 53.992188 L 239.492188 65.695312 L 230.714844 65.695312 Z M 230.714844 53.992188 " fill-opacity="1" fill-rule="nonzero"/><path fill="#ffffff" d="M 252.6875 71.164062 L 260.960938 62.882812 L 267.167969 69.089844 L 258.894531 77.367188 Z M 252.6875 71.164062 " fill-opacity="1" fill-rule="nonzero"/><path fill="#ffffff" d="M 203.035156 69.089844 L 209.242188 62.882812 L 217.515625 71.160156 L 211.308594 77.367188 Z M 203.035156 69.089844 " fill-opacity="1" fill-rule="nonzero"/><path fill="#ffffff" d="M 36.4375 65.695312 L 48.140625 65.695312 L 48.140625 77.398438 L 36.4375 77.398438 Z M 36.4375 65.695312 " fill-opacity="1" fill-rule="nonzero"/><path fill="#ffffff" d="M 24.734375 77.398438 L 36.4375 77.398438 L 36.4375 89.101562 L 24.734375 89.101562 Z M 24.734375 77.398438 " fill-opacity="1" fill-rule="nonzero"/><path fill="#ffffff" d="M 24.734375 100.804688 L 36.4375 100.804688 L 36.4375 112.511719 L 24.734375 112.511719 Z M 24.734375 100.804688 " fill-opacity="1" fill-rule="nonzero"/><path fill="#ffffff" d="M 24.734375 147.621094 L 36.4375 147.621094 L 36.4375 159.324219 L 24.734375 159.324219 Z M 24.734375 147.621094 " fill-opacity="1" fill-rule="nonzero"/><path fill="#ffffff" d="M 24.734375 124.214844 L 36.4375 124.214844 L 36.4375 135.917969 L 24.734375 135.917969 Z M 24.734375 124.214844 " fill-opacity="1" fill-rule="nonzero"/><g clip-path="url(#b5fdd2e827)"><path fill="#ffffff" d="M 346.582031 13.03125 L 182.730469 13.03125 C 182.15625 13.03125 181.582031 13.058594 181.011719 13.113281 C 180.4375 13.171875 179.871094 13.253906 179.304688 13.367188 C 178.742188 13.480469 178.183594 13.617188 177.636719 13.785156 C 177.085938 13.953125 176.542969 14.144531 176.011719 14.367188 C 175.480469 14.585938 174.960938 14.832031 174.457031 15.101562 C 173.949219 15.375 173.457031 15.667969 172.976562 15.988281 C 172.5 16.308594 172.039062 16.648438 171.59375 17.015625 C 171.148438 17.378906 170.722656 17.765625 170.316406 18.171875 C 169.910156 18.578125 169.523438 19.003906 169.160156 19.449219 C 168.796875 19.894531 168.453125 20.355469 168.132812 20.832031 C 167.816406 21.308594 167.519531 21.800781 167.25 22.308594 C 166.976562 22.816406 166.730469 23.335938 166.511719 23.867188 C 166.292969 24.398438 166.097656 24.9375 165.929688 25.488281 C 165.765625 26.039062 165.625 26.597656 165.511719 27.160156 C 165.402344 27.722656 165.316406 28.292969 165.261719 28.863281 C 165.203125 29.4375 165.175781 30.011719 165.175781 30.585938 L 165.175781 135.917969 L 194.433594 135.917969 L 194.433594 42.289062 L 334.875 42.289062 L 334.875 229.546875 L 258.804688 229.546875 L 258.804688 258.804688 L 346.582031 258.804688 C 347.15625 258.804688 347.730469 258.777344 348.300781 258.71875 C 348.871094 258.664062 349.441406 258.578125 350.003906 258.464844 C 350.570312 258.355469 351.125 258.214844 351.675781 258.046875 C 352.226562 257.882812 352.765625 257.6875 353.296875 257.46875 C 353.828125 257.246094 354.347656 257 354.855469 256.730469 C 355.363281 256.460938 355.855469 256.164062 356.332031 255.84375 C 356.8125 255.527344 357.273438 255.183594 357.71875 254.820312 C 358.160156 254.453125 358.585938 254.070312 358.992188 253.660156 C 359.398438 253.253906 359.785156 252.828125 360.152344 252.386719 C 360.515625 251.941406 360.855469 251.480469 361.175781 251 C 361.496094 250.523438 361.792969 250.03125 362.0625 249.523438 C 362.332031 249.015625 362.578125 248.496094 362.800781 247.964844 C 363.019531 247.433594 363.210938 246.894531 363.378906 246.34375 C 363.546875 245.792969 363.6875 245.238281 363.796875 244.671875 C 363.910156 244.109375 363.996094 243.542969 364.050781 242.96875 C 364.105469 242.398438 364.136719 241.824219 364.136719 241.25 L 364.136719 30.585938 C 364.136719 30.011719 364.105469 29.4375 364.050781 28.863281 C 363.996094 28.292969 363.910156 27.722656 363.796875 27.160156 C 363.6875 26.597656 363.546875 26.039062 363.378906 25.488281 C 363.210938 24.9375 363.019531 24.398438 362.800781 23.867188 C 362.578125 23.335938 362.332031 22.816406 362.0625 22.308594 C 361.792969 21.800781 361.496094 21.308594 361.175781 20.832031 C 360.855469 20.355469 360.515625 19.894531 360.152344 19.449219 C 359.785156 19.003906 359.398438 18.578125 358.992188 18.171875 C 358.585938 17.765625 358.160156 17.378906 357.71875 17.015625 C 357.273438 16.648438 356.8125 16.308594 356.332031 15.988281 C 355.855469 15.667969 355.363281 15.375 354.855469 15.101562 C 354.347656 14.832031 353.828125 14.585938 353.296875 14.367188 C 352.765625 14.144531 352.226562 13.953125 351.675781 13.785156 C 351.125 13.617188 350.570312 13.480469 350.003906 13.367188 C 349.441406 13.253906 348.871094 13.171875 348.300781 13.113281 C 347.730469 13.058594 347.15625 13.03125 346.582031 13.03125 Z M 346.582031 13.03125 " fill-opacity="1" fill-rule="nonzero"/></g><path fill="#ffffff" d="M 301.230469 182.730469 C 301.230469 183.402344 301.164062 184.070312 301.03125 184.730469 C 300.902344 185.386719 300.707031 186.027344 300.449219 186.648438 C 300.191406 187.269531 299.875 187.859375 299.503906 188.421875 C 299.128906 188.980469 298.703125 189.496094 298.230469 189.972656 C 297.753906 190.449219 297.238281 190.871094 296.679688 191.246094 C 296.117188 191.617188 295.527344 191.933594 294.90625 192.191406 C 294.285156 192.449219 293.644531 192.644531 292.984375 192.773438 C 292.328125 192.90625 291.660156 192.972656 290.988281 192.972656 C 290.316406 192.972656 289.648438 192.90625 288.992188 192.773438 C 288.332031 192.644531 287.691406 192.449219 287.070312 192.191406 C 286.449219 191.933594 285.859375 191.617188 285.300781 191.246094 C 284.738281 190.871094 284.222656 190.449219 283.746094 189.972656 C 283.273438 189.496094 282.847656 188.980469 282.472656 188.421875 C 282.101562 187.859375 281.785156 187.269531 281.527344 186.648438 C 281.269531 186.027344 281.074219 185.386719 280.945312 184.730469 C 280.8125 184.070312 280.746094 183.402344 280.746094 182.730469 C 280.746094 182.058594 280.8125 181.390625 280.945312 180.734375 C 281.074219 180.074219 281.269531 179.433594 281.527344 178.8125 C 281.785156 178.191406 282.101562 177.601562 282.472656 177.042969 C 282.847656 176.480469 283.273438 175.964844 283.746094 175.488281 C 284.222656 175.015625 284.738281 174.589844 285.300781 174.214844 C 285.859375 173.84375 286.449219 173.527344 287.070312 173.269531 C 287.691406 173.011719 288.332031 172.816406 288.992188 172.6875 C 289.648438 172.554688 290.316406 172.492188 290.988281 172.492188 C 291.660156 172.492188 292.328125 172.554688 292.984375 172.6875 C 293.644531 172.816406 294.285156 173.011719 294.90625 173.269531 C 295.527344 173.527344 296.117188 173.84375 296.679688 174.214844 C 297.238281 174.589844 297.753906 175.015625 298.230469 175.488281 C 298.703125 175.964844 299.128906 176.480469 299.503906 177.042969 C 299.875 177.601562 300.191406 178.191406 300.449219 178.8125 C 300.707031 179.433594 300.902344 180.074219 301.03125 180.734375 C 301.164062 181.390625 301.230469 182.058594 301.230469 182.730469 Z M 301.230469 182.730469 " fill-opacity="1" fill-rule="nonzero"/><path fill="#ffffff" d="M 290.988281 222.230469 C 292.28125 222.230469 293.574219 222.167969 294.859375 222.039062 C 296.148438 221.914062 297.425781 221.722656 298.695312 221.472656 C 299.964844 221.21875 301.214844 220.90625 302.453125 220.53125 C 303.691406 220.152344 304.910156 219.71875 306.105469 219.222656 C 307.300781 218.726562 308.46875 218.175781 309.609375 217.566406 C 310.75 216.957031 311.855469 216.292969 312.933594 215.574219 C 314.007812 214.855469 315.046875 214.085938 316.046875 213.265625 C 317.046875 212.445312 318.003906 211.574219 318.917969 210.660156 C 319.832031 209.746094 320.699219 208.789062 321.523438 207.789062 C 322.34375 206.789062 323.113281 205.75 323.832031 204.675781 C 324.550781 203.601562 325.214844 202.492188 325.824219 201.351562 C 326.433594 200.210938 326.984375 199.042969 327.480469 197.847656 C 327.976562 196.652344 328.410156 195.433594 328.785156 194.195312 C 329.164062 192.960938 329.476562 191.707031 329.730469 190.4375 C 329.980469 189.167969 330.171875 187.890625 330.296875 186.601562 C 330.425781 185.316406 330.488281 184.023438 330.488281 182.730469 C 330.488281 181.4375 330.425781 180.148438 330.296875 178.859375 C 330.171875 177.570312 329.980469 176.292969 329.730469 175.023438 C 329.476562 173.757812 329.164062 172.503906 328.785156 171.265625 C 328.410156 170.027344 327.976562 168.808594 327.480469 167.613281 C 326.984375 166.421875 326.433594 165.25 325.824219 164.109375 C 325.214844 162.96875 324.550781 161.863281 323.832031 160.785156 C 323.113281 159.710938 322.34375 158.671875 321.523438 157.671875 C 320.699219 156.671875 319.832031 155.714844 318.917969 154.800781 C 318.003906 153.886719 317.046875 153.019531 316.046875 152.199219 C 315.046875 151.375 314.007812 150.605469 312.933594 149.886719 C 311.855469 149.167969 310.75 148.503906 309.609375 147.894531 C 308.46875 147.285156 307.300781 146.734375 306.105469 146.238281 C 304.910156 145.742188 303.691406 145.308594 302.453125 144.933594 C 301.214844 144.558594 299.964844 144.242188 298.695312 143.992188 C 297.425781 143.738281 296.148438 143.546875 294.859375 143.421875 C 293.574219 143.292969 292.28125 143.230469 290.988281 143.230469 C 289.695312 143.230469 288.402344 143.292969 287.117188 143.421875 C 285.828125 143.546875 284.550781 143.738281 283.28125 143.992188 C 282.011719 144.242188 280.761719 144.558594 279.523438 144.933594 C 278.285156 145.308594 277.066406 145.742188 275.871094 146.238281 C 274.675781 146.734375 273.507812 147.285156 272.367188 147.894531 C 271.226562 148.503906 270.121094 149.167969 269.042969 149.886719 C 267.96875 150.605469 266.929688 151.375 265.929688 152.199219 C 264.929688 153.019531 263.972656 153.886719 263.058594 154.800781 C 262.144531 155.714844 261.277344 156.671875 260.453125 157.671875 C 259.632812 158.671875 258.863281 159.710938 258.144531 160.785156 C 257.425781 161.863281 256.761719 162.96875 256.152344 164.109375 C 255.542969 165.25 254.992188 166.417969 254.496094 167.613281 C 254 168.808594 253.566406 170.027344 253.191406 171.265625 C 252.8125 172.503906 252.5 173.757812 252.246094 175.023438 C 251.996094 176.292969 251.804688 177.570312 251.679688 178.859375 C 251.550781 180.148438 251.488281 181.4375 251.488281 182.730469 C 251.492188 184.023438 251.554688 185.3125 251.683594 186.601562 C 251.8125 187.886719 252.003906 189.164062 252.253906 190.433594 C 252.507812 191.703125 252.824219 192.953125 253.199219 194.191406 C 253.578125 195.429688 254.011719 196.644531 254.507812 197.839844 C 255.003906 199.035156 255.558594 200.203125 256.167969 201.339844 C 256.777344 202.480469 257.441406 203.589844 258.160156 204.664062 C 258.878906 205.738281 259.648438 206.777344 260.46875 207.777344 C 261.289062 208.777344 262.15625 209.734375 263.070312 210.648438 C 263.984375 211.5625 264.941406 212.429688 265.941406 213.25 C 266.941406 214.070312 267.980469 214.839844 269.054688 215.558594 C 270.128906 216.277344 271.238281 216.941406 272.378906 217.550781 C 273.519531 218.164062 274.683594 218.714844 275.878906 219.210938 C 277.074219 219.707031 278.289062 220.140625 279.527344 220.519531 C 280.765625 220.894531 282.015625 221.210938 283.285156 221.464844 C 284.554688 221.71875 285.832031 221.90625 287.117188 222.035156 C 288.40625 222.164062 289.695312 222.230469 290.988281 222.230469 Z M 260.265625 177.933594 C 260.265625 177.5 260.292969 177.066406 260.347656 176.636719 C 260.402344 176.207031 260.480469 175.78125 260.589844 175.363281 C 260.699219 174.941406 260.832031 174.53125 260.992188 174.128906 C 261.152344 173.726562 261.339844 173.335938 261.550781 172.957031 C 261.757812 172.578125 261.992188 172.214844 262.25 171.863281 C 262.503906 171.515625 262.785156 171.183594 263.082031 170.867188 C 263.378906 170.554688 263.699219 170.261719 264.035156 169.988281 C 264.371094 169.714844 264.722656 169.460938 265.089844 169.234375 C 265.457031 169.003906 265.839844 168.800781 266.234375 168.617188 C 266.625 168.4375 267.03125 168.28125 267.445312 168.152344 C 267.859375 168.023438 268.277344 167.921875 268.703125 167.847656 C 269.132812 167.769531 269.5625 167.722656 269.992188 167.699219 C 270.425781 167.679688 270.859375 167.683594 271.292969 167.71875 C 271.722656 167.753906 272.152344 167.8125 272.574219 167.902344 C 273 167.988281 273.417969 168.105469 273.828125 168.246094 C 274.238281 168.386719 274.636719 168.554688 275.023438 168.746094 C 277.425781 169.914062 279.296875 170.746094 280.746094 171.300781 L 280.746094 162.25 C 280.75 161.578125 280.816406 160.910156 280.945312 160.253906 C 281.078125 159.59375 281.273438 158.953125 281.53125 158.332031 C 281.789062 157.710938 282.105469 157.121094 282.476562 156.5625 C 282.851562 156.003906 283.273438 155.488281 283.75 155.011719 C 284.226562 154.535156 284.742188 154.113281 285.300781 153.738281 C 285.859375 153.363281 286.449219 153.050781 287.070312 152.792969 C 287.691406 152.535156 288.332031 152.339844 288.992188 152.207031 C 289.652344 152.074219 290.316406 152.011719 290.988281 152.007812 L 295.785156 152.007812 C 296.21875 152.007812 296.652344 152.035156 297.082031 152.089844 C 297.511719 152.144531 297.9375 152.226562 298.355469 152.332031 C 298.777344 152.441406 299.1875 152.574219 299.589844 152.734375 C 299.992188 152.898438 300.382812 153.082031 300.761719 153.292969 C 301.140625 153.503906 301.503906 153.734375 301.855469 153.992188 C 302.203125 154.25 302.535156 154.527344 302.851562 154.824219 C 303.164062 155.121094 303.457031 155.441406 303.730469 155.777344 C 304.007812 156.113281 304.257812 156.464844 304.488281 156.832031 C 304.714844 157.199219 304.921875 157.582031 305.101562 157.976562 C 305.28125 158.367188 305.4375 158.773438 305.566406 159.1875 C 305.695312 159.601562 305.796875 160.019531 305.875 160.445312 C 305.949219 160.875 305.996094 161.304688 306.019531 161.738281 C 306.039062 162.167969 306.035156 162.601562 306 163.035156 C 305.964844 163.464844 305.90625 163.894531 305.816406 164.320312 C 305.730469 164.742188 305.613281 165.160156 305.472656 165.570312 C 305.332031 165.980469 305.164062 166.378906 304.972656 166.765625 C 303.804688 169.167969 302.972656 171.039062 302.417969 172.492188 L 311.46875 172.492188 C 312.140625 172.492188 312.808594 172.558594 313.464844 172.6875 C 314.125 172.820312 314.765625 173.015625 315.386719 173.273438 C 316.007812 173.53125 316.597656 173.847656 317.15625 174.21875 C 317.714844 174.59375 318.230469 175.019531 318.707031 175.492188 C 319.183594 175.96875 319.605469 176.484375 319.980469 177.042969 C 320.355469 177.601562 320.667969 178.191406 320.925781 178.8125 C 321.183594 179.433594 321.378906 180.074219 321.511719 180.734375 C 321.644531 181.394531 321.710938 182.058594 321.710938 182.730469 L 321.710938 187.53125 C 321.710938 187.960938 321.683594 188.394531 321.628906 188.824219 C 321.574219 189.253906 321.496094 189.679688 321.386719 190.097656 C 321.277344 190.519531 321.144531 190.929688 320.984375 191.332031 C 320.824219 191.734375 320.636719 192.125 320.425781 192.503906 C 320.21875 192.882812 319.984375 193.25 319.726562 193.597656 C 319.472656 193.945312 319.195312 194.277344 318.894531 194.59375 C 318.597656 194.90625 318.277344 195.199219 317.941406 195.472656 C 317.605469 195.75 317.253906 196 316.886719 196.230469 C 316.519531 196.457031 316.136719 196.664062 315.746094 196.84375 C 315.351562 197.023438 314.945312 197.179688 314.53125 197.308594 C 314.117188 197.4375 313.699219 197.539062 313.273438 197.617188 C 312.84375 197.691406 312.414062 197.742188 311.984375 197.761719 C 311.550781 197.78125 311.117188 197.777344 310.683594 197.742188 C 310.253906 197.710938 309.824219 197.648438 309.402344 197.558594 C 308.976562 197.472656 308.558594 197.355469 308.148438 197.214844 C 307.738281 197.074219 307.339844 196.910156 306.953125 196.714844 C 304.554688 195.546875 302.679688 194.714844 301.230469 194.160156 L 301.230469 203.210938 C 301.226562 203.882812 301.160156 204.550781 301.03125 205.210938 C 300.898438 205.867188 300.703125 206.507812 300.445312 207.128906 C 300.1875 207.75 299.875 208.339844 299.5 208.898438 C 299.125 209.457031 298.703125 209.972656 298.226562 210.449219 C 297.75 210.925781 297.234375 211.347656 296.675781 211.722656 C 296.117188 212.097656 295.527344 212.414062 294.90625 212.671875 C 294.285156 212.925781 293.644531 213.121094 292.984375 213.253906 C 292.328125 213.386719 291.660156 213.453125 290.988281 213.453125 L 286.191406 213.453125 C 285.757812 213.453125 285.324219 213.425781 284.894531 213.371094 C 284.464844 213.316406 284.039062 213.238281 283.621094 213.128906 C 283.199219 213.019531 282.789062 212.886719 282.386719 212.726562 C 281.984375 212.566406 281.59375 212.378906 281.214844 212.167969 C 280.835938 211.960938 280.472656 211.726562 280.121094 211.46875 C 279.773438 211.214844 279.441406 210.9375 279.125 210.636719 C 278.8125 210.339844 278.519531 210.019531 278.246094 209.683594 C 277.972656 209.347656 277.71875 208.996094 277.492188 208.628906 C 277.261719 208.261719 277.054688 207.878906 276.875 207.488281 C 276.695312 207.09375 276.539062 206.6875 276.410156 206.273438 C 276.28125 205.863281 276.179688 205.441406 276.101562 205.015625 C 276.027344 204.589844 275.980469 204.15625 275.957031 203.726562 C 275.9375 203.292969 275.941406 202.859375 275.976562 202.429688 C 276.011719 201.996094 276.070312 201.566406 276.160156 201.144531 C 276.246094 200.71875 276.363281 200.300781 276.503906 199.890625 C 276.644531 199.480469 276.8125 199.082031 277.003906 198.695312 C 278.171875 196.296875 279.003906 194.421875 279.558594 192.972656 L 270.507812 192.972656 C 269.835938 192.96875 269.167969 192.90625 268.511719 192.773438 C 267.851562 192.640625 267.210938 192.445312 266.589844 192.1875 C 265.96875 191.929688 265.378906 191.617188 264.820312 191.242188 C 264.261719 190.867188 263.746094 190.445312 263.269531 189.96875 C 262.792969 189.492188 262.371094 188.976562 261.996094 188.417969 C 261.621094 187.859375 261.308594 187.269531 261.050781 186.648438 C 260.792969 186.027344 260.597656 185.386719 260.464844 184.726562 C 260.332031 184.070312 260.265625 183.402344 260.265625 182.730469 Z M 260.265625 177.933594 " fill-opacity="1" fill-rule="nonzero"/><path fill="#ffffff" d="M 259.289062 91.050781 C 259.292969 90.542969 259.277344 90.035156 259.246094 89.527344 C 259.214844 89.019531 259.167969 88.515625 259.105469 88.011719 C 259.042969 87.507812 258.964844 87.003906 258.871094 86.503906 C 258.777344 86.003906 258.664062 85.511719 258.539062 85.019531 C 258.414062 84.527344 258.269531 84.039062 258.113281 83.554688 C 257.957031 83.070312 257.78125 82.59375 257.59375 82.121094 C 257.40625 81.648438 257.203125 81.183594 256.984375 80.722656 C 256.769531 80.265625 256.535156 79.8125 256.289062 79.367188 C 256.042969 78.925781 255.78125 78.488281 255.507812 78.058594 C 255.234375 77.632812 254.945312 77.214844 254.644531 76.804688 C 254.34375 76.394531 254.03125 75.996094 253.703125 75.605469 C 253.378906 75.21875 253.039062 74.839844 252.6875 74.46875 C 252.335938 74.101562 251.976562 73.746094 251.601562 73.402344 C 251.226562 73.058594 250.84375 72.722656 250.449219 72.40625 C 250.054688 72.085938 249.648438 71.777344 249.234375 71.484375 C 248.820312 71.1875 248.398438 70.90625 247.964844 70.640625 C 247.535156 70.371094 247.09375 70.121094 246.644531 69.878906 C 246.195312 69.640625 245.742188 69.414062 245.277344 69.207031 C 244.816406 68.996094 244.347656 68.800781 243.871094 68.621094 C 243.394531 68.441406 242.914062 68.273438 242.429688 68.125 C 241.945312 67.976562 241.453125 67.839844 240.960938 67.722656 C 240.464844 67.605469 239.96875 67.503906 239.46875 67.414062 C 238.964844 67.328125 238.464844 67.257812 237.957031 67.203125 C 237.453125 67.148438 236.945312 67.113281 236.4375 67.089844 C 235.929688 67.066406 235.421875 67.0625 234.914062 67.070312 C 234.40625 67.082031 233.898438 67.109375 233.394531 67.152344 C 232.886719 67.195312 232.382812 67.253906 231.878906 67.328125 C 231.375 67.402344 230.875 67.492188 230.378906 67.597656 C 229.882812 67.707031 229.390625 67.828125 228.902344 67.964844 C 228.410156 68.105469 227.929688 68.257812 227.449219 68.425781 C 226.96875 68.597656 226.496094 68.78125 226.027344 68.980469 C 225.5625 69.179688 225.101562 69.394531 224.644531 69.621094 C 224.191406 69.851562 223.746094 70.09375 223.308594 70.351562 C 222.871094 70.609375 222.441406 70.878906 222.019531 71.164062 C 221.597656 71.449219 221.1875 71.746094 220.785156 72.054688 C 220.382812 72.367188 219.988281 72.691406 219.609375 73.027344 C 219.226562 73.363281 218.855469 73.710938 218.496094 74.070312 C 218.136719 74.429688 217.789062 74.800781 217.453125 75.179688 C 217.121094 75.5625 216.796875 75.953125 216.484375 76.355469 C 216.175781 76.757812 215.878906 77.171875 215.59375 77.59375 C 215.308594 78.011719 215.039062 78.445312 214.78125 78.882812 C 214.523438 79.320312 214.28125 79.765625 214.054688 80.222656 C 213.824219 80.675781 213.609375 81.136719 213.414062 81.601562 C 213.214844 82.070312 213.027344 82.542969 212.859375 83.023438 C 212.691406 83.503906 212.539062 83.988281 212.402344 84.476562 C 212.261719 84.964844 212.140625 85.457031 212.035156 85.957031 C 211.925781 86.453125 211.835938 86.953125 211.761719 87.457031 C 211.6875 87.957031 211.628906 88.460938 211.585938 88.96875 C 211.542969 89.476562 211.519531 89.984375 211.507812 90.492188 C 211.5 91 211.503906 91.507812 211.527344 92.015625 C 211.550781 92.523438 211.589844 93.027344 211.644531 93.535156 C 211.699219 94.039062 211.769531 94.542969 211.855469 95.042969 C 211.941406 95.542969 212.046875 96.042969 212.164062 96.535156 C 212.28125 97.03125 212.417969 97.519531 212.566406 98.003906 C 212.714844 98.492188 212.882812 98.972656 213.0625 99.445312 C 213.242188 99.921875 213.4375 100.390625 213.648438 100.851562 C 213.859375 101.316406 214.085938 101.769531 214.324219 102.21875 C 214.5625 102.667969 214.816406 103.109375 215.085938 103.539062 C 215.351562 103.972656 215.632812 104.394531 215.929688 104.808594 C 216.222656 105.222656 216.53125 105.628906 216.851562 106.023438 C 217.171875 106.417969 217.503906 106.800781 217.847656 107.175781 C 218.191406 107.546875 218.550781 107.910156 218.917969 108.257812 C 219.285156 108.609375 219.664062 108.949219 220.054688 109.273438 C 220.445312 109.601562 220.84375 109.914062 221.253906 110.214844 L 221.253906 120.308594 C 221.253906 121.238281 221.34375 122.160156 221.523438 123.070312 C 221.707031 123.980469 221.972656 124.863281 222.328125 125.722656 C 222.683594 126.582031 223.121094 127.394531 223.636719 128.167969 C 224.152344 128.941406 224.738281 129.65625 225.394531 130.3125 C 226.050781 130.96875 226.765625 131.554688 227.539062 132.070312 C 228.3125 132.585938 229.125 133.023438 229.984375 133.378906 C 230.84375 133.734375 231.726562 134 232.636719 134.183594 C 233.546875 134.363281 234.46875 134.453125 235.398438 134.453125 C 236.324219 134.453125 237.246094 134.363281 238.15625 134.183594 C 239.066406 134 239.953125 133.734375 240.808594 133.378906 C 241.667969 133.023438 242.480469 132.585938 243.253906 132.070312 C 244.027344 131.554688 244.742188 130.96875 245.398438 130.3125 C 246.054688 129.65625 246.640625 128.941406 247.15625 128.167969 C 247.671875 127.394531 248.109375 126.582031 248.464844 125.722656 C 248.820312 124.863281 249.085938 123.980469 249.269531 123.070312 C 249.449219 122.160156 249.539062 121.238281 249.539062 120.308594 L 249.539062 110.210938 C 251.042969 109.105469 252.398438 107.839844 253.609375 106.417969 C 254.816406 104.996094 255.84375 103.453125 256.6875 101.789062 C 257.535156 100.125 258.179688 98.386719 258.617188 96.570312 C 259.058594 94.757812 259.28125 92.917969 259.289062 91.050781 Z M 232.644531 86 L 235.398438 88.746094 L 238.148438 86 L 244.351562 92.203125 L 239.785156 96.773438 L 239.785156 108.121094 L 231.007812 108.121094 L 231.007812 96.773438 L 226.445312 92.203125 Z M 232.644531 86 " fill-opacity="1" fill-rule="nonzero"/><g fill="#31669c" fill-opacity="1"><g transform="translate(271.61612, 332.199998)"><g><path d="M 11.59375 0 L 10.453125 -3.734375 L 4.734375 -3.734375 L 3.59375 0 L 0 0 L 5.546875 -15.765625 L 9.609375 -15.765625 L 15.171875 0 Z M 9.65625 -6.53125 C 8.601562 -9.914062 8.007812 -11.828125 7.875 -12.265625 C 7.75 -12.710938 7.65625 -13.066406 7.59375 -13.328125 C 7.351562 -12.410156 6.675781 -10.144531 5.5625 -6.53125 Z M 9.65625 -6.53125 "/></g></g></g><g fill="#31669c" fill-opacity="1"><g transform="translate(286.792141, 332.199998)"><g><path d="M 4.578125 0 L 0 -12.015625 L 3.421875 -12.015625 L 5.75 -5.171875 C 6.007812 -4.304688 6.171875 -3.484375 6.234375 -2.703125 L 6.296875 -2.703125 C 6.328125 -3.390625 6.488281 -4.210938 6.78125 -5.171875 L 9.09375 -12.015625 L 12.515625 -12.015625 L 7.9375 0 Z M 4.578125 0 "/></g></g></g><g fill="#31669c" fill-opacity="1"><g transform="translate(299.304572, 332.199998)"><g><path d="M 5 0 L 1.71875 0 L 1.71875 -12.015625 L 5 -12.015625 Z M 1.546875 -13.328125 L 1.546875 -13.625 C 2.785156 -15.050781 3.628906 -16.128906 4.078125 -16.859375 L 7.75 -16.859375 L 7.75 -16.625 C 7.375 -16.257812 6.738281 -15.707031 5.84375 -14.96875 C 4.945312 -14.238281 4.242188 -13.691406 3.734375 -13.328125 Z M 1.546875 -13.328125 "/></g></g></g><g fill="#31669c" fill-opacity="1"><g transform="translate(306.017252, 332.199998)"><g><path d="M 6.59375 0.21875 C 2.851562 0.21875 0.984375 -1.832031 0.984375 -5.9375 C 0.984375 -7.976562 1.492188 -9.535156 2.515625 -10.609375 C 3.535156 -11.691406 4.992188 -12.234375 6.890625 -12.234375 C 8.273438 -12.234375 9.519531 -11.960938 10.625 -11.421875 L 9.65625 -8.890625 C 9.144531 -9.097656 8.664062 -9.265625 8.21875 -9.390625 C 7.769531 -9.523438 7.328125 -9.59375 6.890625 -9.59375 C 5.179688 -9.59375 4.328125 -8.382812 4.328125 -5.96875 C 4.328125 -3.613281 5.179688 -2.4375 6.890625 -2.4375 C 7.515625 -2.4375 8.09375 -2.519531 8.625 -2.6875 C 9.164062 -2.851562 9.707031 -3.117188 10.25 -3.484375 L 10.25 -0.671875 C 9.71875 -0.335938 9.179688 -0.109375 8.640625 0.015625 C 8.097656 0.148438 7.414062 0.21875 6.59375 0.21875 Z M 6.59375 0.21875 "/></g></g></g><g fill="#31669c" fill-opacity="1"><g transform="translate(317.326772, 332.199998)"><g><path d="M 4.328125 -6.03125 C 4.328125 -4.84375 4.519531 -3.941406 4.90625 -3.328125 C 5.300781 -2.722656 5.941406 -2.421875 6.828125 -2.421875 C 7.691406 -2.421875 8.316406 -2.722656 8.703125 -3.328125 C 9.085938 -3.929688 9.28125 -4.832031 9.28125 -6.03125 C 9.28125 -7.21875 9.085938 -8.109375 8.703125 -8.703125 C 8.316406 -9.296875 7.679688 -9.59375 6.796875 -9.59375 C 5.921875 -9.59375 5.289062 -9.296875 4.90625 -8.703125 C 4.519531 -8.117188 4.328125 -7.226562 4.328125 -6.03125 Z M 12.640625 -6.03125 C 12.640625 -4.070312 12.125 -2.539062 11.09375 -1.4375 C 10.0625 -0.332031 8.625 0.21875 6.78125 0.21875 C 5.625 0.21875 4.601562 -0.03125 3.71875 -0.53125 C 2.84375 -1.039062 2.164062 -1.769531 1.6875 -2.71875 C 1.21875 -3.664062 0.984375 -4.769531 0.984375 -6.03125 C 0.984375 -7.988281 1.492188 -9.507812 2.515625 -10.59375 C 3.546875 -11.6875 4.988281 -12.234375 6.84375 -12.234375 C 8 -12.234375 9.015625 -11.984375 9.890625 -11.484375 C 10.773438 -10.984375 11.453125 -10.265625 11.921875 -9.328125 C 12.398438 -8.390625 12.640625 -7.289062 12.640625 -6.03125 Z M 12.640625 -6.03125 "/></g></g></g><g fill="#31669c" fill-opacity="1"><g transform="translate(330.945447, 332.199998)"><g><path d="M 5 0 L 1.71875 0 L 1.71875 -16.71875 L 5 -16.71875 Z M 5 0 "/></g></g></g><g fill="#31669c" fill-opacity="1"><g transform="translate(337.658127, 332.199998)"><g><path d="M 9.34375 0 L 8.71875 -1.640625 L 8.625 -1.640625 C 8.070312 -0.941406 7.503906 -0.457031 6.921875 -0.1875 C 6.335938 0.0820312 5.578125 0.21875 4.640625 0.21875 C 3.484375 0.21875 2.570312 -0.109375 1.90625 -0.765625 C 1.25 -1.429688 0.921875 -2.375 0.921875 -3.59375 C 0.921875 -4.863281 1.363281 -5.800781 2.25 -6.40625 C 3.144531 -7.007812 4.492188 -7.34375 6.296875 -7.40625 L 8.375 -7.484375 L 8.375 -8 C 8.375 -9.21875 7.753906 -9.828125 6.515625 -9.828125 C 5.554688 -9.828125 4.425781 -9.535156 3.125 -8.953125 L 2.046875 -11.171875 C 3.421875 -11.890625 4.953125 -12.25 6.640625 -12.25 C 8.253906 -12.25 9.488281 -11.898438 10.34375 -11.203125 C 11.207031 -10.503906 11.640625 -9.4375 11.640625 -8 L 11.640625 0 Z M 8.375 -5.5625 L 7.109375 -5.515625 C 6.160156 -5.492188 5.453125 -5.320312 4.984375 -5 C 4.515625 -4.6875 4.28125 -4.207031 4.28125 -3.5625 C 4.28125 -2.644531 4.8125 -2.1875 5.875 -2.1875 C 6.632812 -2.1875 7.238281 -2.398438 7.6875 -2.828125 C 8.144531 -3.265625 8.375 -3.847656 8.375 -4.578125 Z M 8.375 -5.5625 "/></g></g></g></svg>