<svg width="165" height="144" viewBox="0 0 165 144" fill="none" xmlns="http://www.w3.org/2000/svg">
<g filter="url(#filter0_d_4016_13078)">
<path d="M159.405 101.255C156.931 99.5551 153.535 98.3001 148.511 97.2825C153.899 88.9274 156.718 79.6545 156.718 70.1544C156.718 41.2737 130.696 20.1109 104.94 13.5937C104.28 11.9247 103.04 10.5177 101.374 9.64198C99.6655 8.74306 98.168 8.56502 97.176 8.44632C96.9726 8.42171 96.6952 8.38842 96.5122 8.35513C96.4671 8.20024 96.4192 8.01496 96.38 7.86152C95.9588 6.2316 95.1759 3.19614 91.3515 1.64729C90.3028 1.22171 89.241 1.00748 88.1952 1.00748C85.7434 1.00748 83.9917 2.15537 82.8312 2.91532C82.8021 2.93414 82.7702 2.9544 82.7397 2.97612C82.7077 2.94861 82.6772 2.92256 82.6467 2.89795C81.3743 1.81375 79.245 0 76.0379 0C74.9717 0 73.8722 0.205549 72.7727 0.612304C69.7399 1.73269 68.5619 3.92425 68.0288 5.56574C67.5364 5.46586 66.9874 5.39349 66.389 5.39349C64.4978 5.39349 62.7897 6.09988 61.3125 7.4953C59.3328 9.3655 59.0946 11.6019 59.083 13.1016C57.0683 13.3636 53.9818 13.8514 51.2918 16.3339C38.8585 20.9472 28.2814 28.2036 20.666 37.3534C12.5684 47.0823 8.28791 58.4251 8.28791 70.153C8.28791 76.6133 9.58208 82.9679 12.1356 89.0432C13.6534 92.6533 15.5983 96.1274 17.9499 99.4292C16.0282 99.5435 13.9599 99.7259 11.9656 100.011C7.2 100.693 0.78144 102.177 0.0537421 107.147L0.0392172 107.241C0.00435747 107.473 -0.00726245 107.708 0.00435747 107.941V126.442C0.00435747 129.643 0.191729 133.003 2.42856 135.801C4.38071 138.245 7.45709 139.872 13.0521 141.423C19.5447 143.205 26.444 144 35.4233 144C38.7147 144 41.9174 143.897 44.6205 143.796C59.5448 143.223 73.8708 139.741 87.7275 136.373C98.3612 133.789 109.358 131.116 120.459 129.821C120.472 129.82 120.486 129.819 120.5 129.817C121.415 129.7 122.972 129.606 124.797 129.549C124.794 129.895 124.794 130.305 124.794 130.803C124.794 130.832 124.794 130.861 124.794 130.888C124.808 132.997 125.943 135.843 131.1 137.734C134.216 138.876 137.698 139.313 139.045 139.448C140.903 139.636 142.892 139.731 144.956 139.731C148.514 139.731 152.122 139.44 155.114 138.913C159.321 138.172 161.977 137.05 163.479 135.383C164.188 134.595 164.657 133.682 164.859 132.703C164.951 132.385 165 132.048 165 131.7V113.042C165 109.633 164.42 104.701 159.404 101.253L159.405 101.255Z" fill="white"/>
<path d="M34.1573 115.477C29.2552 115.477 24.3327 115.146 19.5264 114.492C5.14676 112.593 3.33986 109.802 3.23237 107.866L3.22656 107.771L3.24109 107.677C3.89616 103.207 19.2519 102.859 23.942 102.859C25.9856 102.859 28.099 102.913 30.2226 103.02C39.5258 103.499 57.1183 105.701 57.1183 110.602C57.1183 112.3 54.9919 113.493 50.4252 114.354L50.3744 114.363C44.7184 115.111 39.4139 115.476 34.1573 115.476V115.477Z" fill="#001689"/>
<path d="M5.14062 107.867C5.28878 108.54 6.76887 110.9 19.7759 112.618C24.5009 113.261 29.3377 113.586 34.1527 113.586C39.3177 113.586 44.5307 113.229 50.0938 112.493C54.839 111.596 55.2123 110.607 55.2152 110.599C55.2152 109.115 46.3579 105.754 30.122 104.916C28.0319 104.811 25.9505 104.758 23.9388 104.758C11.2977 104.758 5.57347 106.735 5.14062 107.869V107.867Z" fill="#FF5100"/>
<path d="M138.02 36.1507C128.82 26.7418 115.81 19.7864 101.386 16.5642C95.1413 15.1688 88.6516 14.4609 82.0979 14.4609C43.1785 14.4609 11.5156 39.4438 11.5156 70.1531C11.5156 100.862 43.1785 125.845 82.0979 125.845C121.017 125.845 152.682 100.862 152.682 70.1531C152.682 57.7174 147.613 45.9591 138.02 36.1492V36.1507Z" fill="#001689"/>
<path d="M100.97 18.4149C129.727 24.8375 150.78 45.5719 150.78 70.1567C150.78 99.8701 120.03 123.956 82.098 123.956C44.1662 123.956 13.4141 99.8716 13.4141 70.1582C13.4141 40.4448 44.1647 16.3594 82.0965 16.3594C88.6414 16.3594 94.9729 17.0759 100.969 18.4163L100.97 18.4149Z" fill="white"/>
<path d="M122.228 76.9562C122.228 95.5671 104.26 110.653 82.0981 110.653C59.936 110.653 41.9688 95.5671 41.9688 76.9562C41.9688 58.3454 59.9346 43.2578 82.0981 43.2578C104.262 43.2578 122.228 58.3454 122.228 76.9562Z" fill="#001689"/>
<path d="M102.837 82.7615C102.837 94.1767 93.5509 103.429 82.098 103.429C70.6451 103.429 61.3594 94.1767 61.3594 82.7615C61.3594 71.3463 70.6437 62.0938 82.098 62.0938C93.5524 62.0938 102.837 71.3478 102.837 82.7615Z" fill="white"/>
<path d="M95.6275 78.5104C94.7748 77.4465 93.3369 76.908 91.3542 76.908H83.0794L81.653 82.6084H76.2222L78.889 71.9531H71.8952L67.7266 88.6127H80.1512L78.9107 93.5676H85.9248L87.2379 88.3232H88.6482C90.6904 88.3232 92.3753 87.8311 93.6564 86.8612C94.9491 85.8841 95.8221 84.522 96.2491 82.8139C96.695 81.0306 96.4859 79.583 95.6275 78.5104Z" fill="#001689"/>
<path d="M81.4386 83.874H74.5989L77.2642 73.2188H72.8806L69.3438 87.3539H80.5671L81.4386 83.8726V83.874ZM94.636 79.3013C94.0332 78.55 92.9395 78.1736 91.3533 78.1736H84.0676L80.5308 92.3087H84.9333L86.2449 87.0644H88.6459C90.4136 87.0644 91.8283 86.6619 92.8901 85.8586C93.9518 85.0552 94.6621 83.9406 95.0194 82.5133C95.3666 81.1251 95.2387 80.0554 94.6374 79.3027L94.636 79.3013ZM90.7201 82.6378C90.6053 83.0938 90.3409 83.4687 89.9255 83.7611C89.5101 84.0535 88.8812 84.1997 88.0358 84.1997H86.9625L87.7512 81.047H88.9988C89.8181 81.047 90.338 81.2004 90.5574 81.5102C90.7767 81.8185 90.8304 82.1949 90.7201 82.6393V82.6378Z" fill="#EA0029"/>
<path d="M60.7031 44.2211C64.5116 44.0199 67.312 48.3407 68.5045 50.4194C70.002 53.0307 72.3841 57.809 76.4685 59.6879C80.6676 61.6189 86.4805 58.7224 85.5581 52.2737C84.6024 45.6035 76.0923 42.6288 70.2547 43.257L61.0386 41.4766L60.7031 44.2211Z" fill="#EA0029"/>
<path d="M67.5083 35.8381C63.2539 25.7821 75.7032 13.2089 100.971 18.4098C102.032 16.2356 101.221 13.8646 99.2742 12.8412C96.9197 11.6021 95.2988 12.4764 93.6008 11.0839C91.8665 9.66098 93.1113 6.42865 89.5788 4.99849C85.9128 3.51333 84.2162 6.92804 82.1319 6.92804C80.0476 6.92804 78.3235 2.2699 73.629 4.00404C70.1344 5.29523 71.3283 8.64047 69.9891 9.53215C68.6485 10.4224 66.156 7.52443 63.405 10.1213C61.3497 12.061 63.0912 14.8344 61.7506 16.0229C60.4099 17.2098 55.3219 15.7884 52.1162 20.4219C49.3579 24.4098 52.0697 29.7613 54.1323 31.4188L58.0235 37.3001L67.5083 35.8366V35.8381Z" fill="#EA0029"/>
<path d="M54.136 31.418C50.8214 33.3476 46.0195 39.2477 44.0078 44.1461C47.7494 44.576 54.4105 44.5905 60.7071 44.2199C64.1858 44.0144 67.5556 43.6916 70.2587 43.2559C69.6297 39.9859 68.6958 37.5859 67.512 35.8373C66.8017 34.7879 66 33.9743 65.1198 33.3476C62.774 31.6771 56.5181 30.0313 54.136 31.418Z" fill="#FF5100"/>
<path d="M65.1198 33.3476C62.774 31.6771 56.5181 30.0313 54.136 31.418C50.8214 33.3476 46.0195 39.2477 44.0078 44.1461C48.3537 42.0747 60.739 37.4687 67.512 35.8373C66.8017 34.7879 66 33.9743 65.1198 33.3476Z" fill="#FFDD00"/>
<path d="M79.2176 30.9022C79.2176 33.3428 77.2335 35.3201 74.7846 35.3201C72.3357 35.3201 70.3516 33.3428 70.3516 30.9022C70.3516 28.4617 72.3357 26.4844 74.7846 26.4844C77.2335 26.4844 79.2176 28.4617 79.2176 30.9022Z" fill="#001689"/>
<path d="M76.1102 29.9968C76.1102 31.2026 75.1283 32.1811 73.9184 32.1811C72.7084 32.1811 71.7266 31.2026 71.7266 29.9968C71.7266 28.791 72.7084 27.8125 73.9184 27.8125C75.1283 27.8125 76.1102 28.791 76.1102 29.9968Z" fill="white"/>
<path d="M160.968 113.042C160.968 104.841 156.461 101.862 140.875 99.7605C137.121 99.2539 133.196 99.0078 128.879 99.0078C126.162 99.0078 123.29 99.1048 120.1 99.3046C105.806 100.175 92.5698 103.365 79.769 106.451C64.5774 110.113 50.2283 113.573 34.0853 113.573C29.218 113.573 24.541 113.26 19.7826 112.616C5.9331 110.794 5.15021 108.218 5.13423 107.72L3.23438 107.751V126.443C3.23438 132.695 4.12911 135.306 13.6153 137.935C19.7811 139.627 26.3827 140.381 35.0236 140.381C38.2321 140.381 41.4015 140.28 44.0799 140.18C58.6396 139.621 72.7854 136.182 86.4664 132.858C97.2076 130.247 108.315 127.549 119.637 126.227C121.3 126.014 124.603 125.875 128.086 125.872C128.082 126.874 128.069 127.359 128.057 127.83C128.041 128.442 128.025 129.076 128.025 130.804C127.968 133.915 134.895 135.439 139.012 135.85C140.749 136.025 142.614 136.115 144.554 136.115C150.81 136.115 158.43 135.131 160.376 132.968C160.787 132.511 160.918 132.061 160.937 131.702H160.969V113.043L160.968 113.042Z" fill="#001689"/>
<path d="M144.554 134.22C142.677 134.22 140.876 134.135 139.201 133.966C133.709 133.418 130.281 131.799 129.953 130.942C130.361 130.308 132.059 129.635 135.734 129.635C139.635 129.635 143.47 130.386 144.132 130.806L145.887 132.718L145.585 127C157.062 128.672 158.794 130.745 159.031 131.493C159.035 131.525 159.039 131.555 159.041 131.584C158.775 132.477 153.421 134.219 144.552 134.219L144.554 134.22Z" fill="#FF5100"/>
<path d="M143.774 128.682C141.653 128.086 138.188 127.741 135.736 127.741C133.284 127.741 131.242 128.044 129.938 128.643C129.942 128.344 129.949 128.109 129.955 127.878C129.968 127.398 129.98 126.903 129.985 125.883C133.41 125.925 138.58 126.109 143.671 126.741L143.774 128.682Z" fill="#FFDD00"/>
<path d="M119.403 124.345C107.976 125.679 96.8111 128.391 86.0147 131.016C72.4252 134.317 58.3739 137.734 44.0073 138.287C41.3478 138.385 38.2002 138.486 35.0222 138.486C26.56 138.486 20.1138 137.752 14.1208 136.108C5.13281 133.617 5.13281 131.515 5.13281 126.44V110.63C7.11256 111.936 11.1737 113.391 19.5284 114.489C24.3696 115.145 29.1309 115.462 34.0839 115.462C50.4534 115.462 65.5826 111.814 80.215 108.288C92.9359 105.221 106.09 102.051 120.218 101.191C123.368 100.994 126.202 100.898 128.879 100.898C133.11 100.898 136.951 101.139 140.62 101.634C156.28 103.746 159.068 106.458 159.068 113.039V128.7C156.738 127.138 152.145 125.948 144.814 124.94L144.713 124.926C142.825 124.654 140.66 124.431 138.386 124.267C138.216 124.254 138.046 124.244 137.877 124.233C137.321 124.195 136.758 124.16 136.191 124.13C135.363 124.083 134.537 124.047 133.716 124.021C133.595 124.017 133.476 124.014 133.356 124.011C132.897 123.998 132.436 123.976 131.979 123.969V123.976C131.224 123.962 130.471 123.953 129.727 123.953C129.492 123.953 129.26 123.953 129.032 123.955L128.088 123.96V123.976C124.478 123.981 121.158 124.121 119.405 124.345H119.403Z" fill="#FFDD00"/>
<path d="M21.3438 131.159L23.9858 131.439L24.2487 128.969L21.6067 128.69L21.3438 131.159ZM26.2459 131.606L28.8996 131.734L29.0187 129.253L26.365 129.125L26.2459 131.606ZM31.1219 131.783H33.7785L33.78 129.302H31.1219L31.1205 131.783H31.1219ZM35.6944 122.821L36.0386 131.74L38.5296 131.644L38.1854 122.726L35.6944 122.821ZM40.4861 124.266L41.6743 124.181L43.5117 122.224L41.3794 122.376L40.4861 124.265V124.266ZM40.3975 125.067L40.8623 131.515L43.3417 131.337L42.8769 124.888L40.3975 125.067ZM48.9004 121.82L49.2475 124.893C48.9759 124.663 48.6753 124.501 48.347 124.405C48.0187 124.311 47.6629 124.286 47.278 124.328C46.4893 124.417 45.8705 124.771 45.4217 125.394C44.9743 126.016 44.8102 126.859 44.9293 127.924C45.0368 128.876 45.3592 129.658 45.8981 130.272C46.437 130.886 47.1443 131.143 48.0231 131.045C48.4603 130.996 48.8467 130.858 49.1822 130.632C49.4335 130.461 49.6978 130.156 49.9767 129.716L50.0842 130.666L52.3965 130.406L51.3958 121.537L48.9004 121.817V121.82ZM49.3754 128.695C49.1923 128.965 48.944 129.118 48.6273 129.153C48.3325 129.186 48.071 129.092 47.843 128.871C47.6149 128.649 47.4711 128.276 47.413 127.752C47.3506 127.191 47.4014 126.78 47.5699 126.521C47.737 126.262 47.965 126.116 48.2526 126.084C48.5808 126.048 48.8655 126.141 49.1081 126.365C49.3507 126.589 49.5003 126.953 49.5569 127.458C49.6194 128.015 49.5598 128.428 49.3768 128.697L49.3754 128.695ZM58.4694 127.998C58.2704 128.151 58.0511 128.247 57.81 128.284C57.428 128.344 57.0968 128.254 56.815 128.014C56.616 127.847 56.4635 127.572 56.3575 127.186L61.2829 126.421L61.2393 126.145C61.1071 125.302 60.8617 124.64 60.5029 124.157C60.1427 123.675 59.6764 123.337 59.1012 123.143C58.5275 122.949 57.7809 122.923 56.8629 123.065C55.7315 123.24 54.8934 123.687 54.3487 124.404C53.804 125.12 53.6079 125.978 53.7648 126.977C53.8737 127.679 54.1294 128.266 54.5303 128.735C54.9311 129.205 55.3945 129.521 55.9188 129.684C56.4432 129.848 57.1302 129.864 57.9785 129.732C58.956 129.58 59.6851 129.324 60.1645 128.965C60.6438 128.604 61.0185 128.076 61.2887 127.375L58.834 127.529C58.7105 127.744 58.59 127.901 58.468 127.998H58.4694ZM56.3299 125.107C56.5144 124.763 56.8034 124.56 57.1927 124.499C57.5311 124.447 57.8187 124.506 58.0583 124.679C58.298 124.851 58.4781 125.171 58.6001 125.635L56.1803 126.01C56.1614 125.622 56.2108 125.321 56.3299 125.106V125.107ZM66.0834 121.467C65.7391 121.53 65.466 121.669 65.2627 121.882C65.0608 122.095 64.8909 122.448 64.7543 122.939L64.5597 121.898L62.272 122.322L63.4573 128.678L65.9134 128.224L65.5154 126.093C65.3252 125.075 65.3223 124.357 65.5053 123.94C65.6316 123.644 65.8553 123.467 66.1763 123.408C66.3448 123.377 66.5845 123.395 66.8938 123.461L67.3267 121.585C66.8561 121.44 66.4421 121.403 66.0805 121.469L66.0834 121.467ZM77.8834 124.207C77.696 124.373 77.4825 124.485 77.2443 124.538C76.8667 124.624 76.5297 124.556 76.2334 124.336C76.0228 124.184 75.8528 123.919 75.7206 123.539L80.5821 122.442L80.5197 122.169C80.3308 121.338 80.0403 120.694 79.6482 120.236C79.256 119.779 78.7665 119.473 78.1812 119.318C77.5943 119.164 76.8492 119.188 75.9429 119.392C74.8274 119.644 74.0212 120.146 73.5259 120.899C73.0306 121.652 72.8955 122.522 73.1192 123.506C73.2761 124.199 73.5709 124.765 74.0038 125.207C74.4366 125.648 74.9189 125.932 75.4534 126.06C75.9879 126.187 76.6735 126.155 77.5116 125.965C78.476 125.748 79.1863 125.443 79.6395 125.051C80.0926 124.66 80.4311 124.105 80.6518 123.389L78.2131 123.709C78.1056 123.933 77.9952 124.097 77.8805 124.202L77.8834 124.207ZM75.5507 121.468C75.7119 121.112 75.985 120.889 76.3699 120.802C76.704 120.727 76.9959 120.767 77.2457 120.922C77.4956 121.079 77.6975 121.384 77.8514 121.841L75.4621 122.38C75.4156 121.995 75.4447 121.691 75.5492 121.468H75.5507ZM87.5221 117.306C87.0501 116.998 86.4792 116.921 85.8082 117.078C85.3129 117.193 84.9134 117.382 84.6099 117.642C84.3063 117.903 84.0361 118.281 83.7979 118.778L83.5568 117.754L81.3026 118.279L82.7797 124.574L85.201 124.01L84.4908 120.987C84.3557 120.414 84.3542 119.996 84.485 119.732C84.6157 119.469 84.8278 119.302 85.1212 119.234C85.387 119.172 85.6121 119.207 85.798 119.336C85.9825 119.465 86.1219 119.728 86.2149 120.123L87.0283 123.586L89.4612 123.018L88.5229 119.017C88.3268 118.188 87.9942 117.618 87.5236 117.309L87.5221 117.306ZM101.056 114.925C100.465 114.365 99.7434 114.167 98.8922 114.33C98.4594 114.413 98.0846 114.582 97.7636 114.838C97.5269 115.029 97.2887 115.351 97.049 115.807L96.8674 114.869L94.5827 115.307L96.2748 124.071L98.7397 123.597L98.1544 120.566C98.4463 120.77 98.76 120.906 99.0956 120.974C99.4296 121.042 99.784 121.041 100.16 120.969C100.936 120.819 101.524 120.419 101.925 119.766C102.326 119.111 102.425 118.257 102.22 117.201C102.035 116.244 101.648 115.485 101.056 114.925ZM99.7013 118.809C99.5546 119.078 99.3381 119.242 99.0549 119.295C98.731 119.357 98.439 119.288 98.1805 119.085C97.922 118.883 97.7433 118.531 97.646 118.029C97.5399 117.483 97.5675 117.067 97.7302 116.785C97.8914 116.503 98.1268 116.331 98.439 116.271C98.7266 116.216 98.9939 116.29 99.2408 116.493C99.4877 116.695 99.6606 117.054 99.7593 117.568C99.8668 118.127 99.848 118.541 99.7013 118.81V118.809ZM107.625 112.984L108.11 116.057C108.201 116.639 108.171 117.056 108.02 117.311C107.869 117.564 107.645 117.715 107.352 117.761C107.081 117.804 106.859 117.752 106.685 117.607C106.509 117.463 106.39 117.189 106.326 116.788L105.771 113.276L103.303 113.663L103.945 117.729C104.078 118.567 104.368 119.158 104.815 119.499C105.263 119.842 105.825 119.961 106.5 119.854C107.007 119.774 107.421 119.618 107.741 119.382C108.06 119.148 108.357 118.79 108.633 118.312L108.795 119.346L111.089 118.987L110.081 112.599L107.625 112.984ZM116.024 111.72C115.677 111.762 115.395 111.882 115.179 112.082C114.963 112.282 114.772 112.622 114.604 113.106L114.477 112.053L112.167 112.331L112.944 118.75L115.424 118.451L115.164 116.3C115.04 115.273 115.082 114.556 115.292 114.151C115.438 113.864 115.673 113.701 115.995 113.661C116.165 113.641 116.402 113.673 116.708 113.76L117.26 111.916C116.8 111.742 116.389 111.677 116.024 111.722V111.72ZM125.903 114.618C125.84 113.769 125.649 113.088 125.329 112.579C125.009 112.069 124.571 111.694 124.014 111.454C123.458 111.214 122.716 111.128 121.789 111.196C120.649 111.28 119.776 111.658 119.175 112.328C118.573 113 118.309 113.838 118.385 114.847C118.437 115.555 118.645 116.16 119.006 116.659C119.368 117.16 119.804 117.512 120.312 117.717C120.822 117.922 121.505 117.992 122.362 117.93C123.348 117.858 124.096 117.661 124.603 117.341C125.11 117.021 125.527 116.523 125.852 115.847L123.393 115.802C123.252 116.008 123.118 116.154 122.99 116.241C122.78 116.378 122.553 116.457 122.309 116.474C121.924 116.502 121.6 116.386 121.34 116.124C121.156 115.941 121.025 115.655 120.951 115.261L125.923 114.895L125.903 114.615V114.618ZM120.871 114.08C120.883 113.692 120.957 113.395 121.094 113.191C121.306 112.862 121.609 112.683 122.003 112.654C122.344 112.629 122.627 112.712 122.851 112.903C123.076 113.094 123.23 113.427 123.314 113.9L120.871 114.08ZM129.919 115.757L133.161 112.402L133.146 110.953L127.13 111.011L127.146 112.703L130.012 112.676L126.933 115.87L126.949 117.477L133.411 117.415L133.395 115.723L129.919 115.756V115.757ZM141.488 116.574L141.704 113.727C141.728 113.424 141.69 113.1 141.594 112.757C141.498 112.414 141.351 112.143 141.154 111.945C140.874 111.66 140.512 111.458 140.066 111.34C139.621 111.222 139.029 111.137 138.285 111.079C137.822 111.044 137.389 111.046 136.985 111.085C136.581 111.124 136.262 111.196 136.025 111.305C135.695 111.455 135.437 111.642 135.251 111.867C135.064 112.091 134.911 112.405 134.791 112.812L137.141 113.24C137.26 112.968 137.402 112.789 137.568 112.699C137.78 112.584 138.089 112.543 138.496 112.574C138.812 112.599 139.029 112.676 139.147 112.807C139.263 112.938 139.309 113.156 139.287 113.459C138.969 113.557 138.67 113.632 138.387 113.686C138.105 113.74 137.492 113.825 136.548 113.941C135.761 114.035 135.21 114.23 134.898 114.524C134.586 114.818 134.411 115.21 134.374 115.7C134.334 116.221 134.5 116.675 134.873 117.062C135.247 117.448 135.819 117.671 136.59 117.729C137.171 117.772 137.687 117.723 138.14 117.577C138.471 117.468 138.81 117.27 139.16 116.982C139.174 117.17 139.192 117.309 139.213 117.399C139.235 117.489 139.286 117.619 139.367 117.793L141.694 117.969C141.585 117.693 141.517 117.466 141.491 117.292C141.465 117.117 141.465 116.878 141.488 116.574ZM139.163 115.097C139.139 115.404 139.07 115.65 138.956 115.836C138.842 116.021 138.661 116.17 138.413 116.286C138.165 116.402 137.903 116.448 137.627 116.428C137.363 116.407 137.168 116.331 137.042 116.198C136.916 116.064 136.859 115.899 136.873 115.705C136.886 115.536 136.968 115.388 137.116 115.265C137.26 115.145 137.588 115.038 138.102 114.943C138.478 114.877 138.843 114.796 139.193 114.702L139.164 115.097H139.163Z" fill="#001689"/>
<path d="M135.148 85.1753C133.832 84.4675 132.596 84.136 131.442 84.1809C130.287 84.2257 129.283 84.5543 128.431 85.1652C127.577 85.7775 126.808 86.7155 126.123 87.9806C125.449 89.2255 125.12 90.3907 125.136 91.4778C125.154 92.5635 125.463 93.5536 126.067 94.4482C126.672 95.3413 127.63 96.1432 128.946 96.8496C130.759 97.8238 132.441 98.0771 133.995 97.6067C135.548 97.1377 136.83 95.9681 137.841 94.1008C138.828 92.2783 139.085 90.5818 138.613 89.0112C138.141 87.4407 136.986 86.1611 135.148 85.1724V85.1753ZM135.211 92.6793C134.816 93.4088 134.26 93.8561 133.539 94.0197C132.82 94.1833 131.93 93.9792 130.869 93.4103C129.61 92.7328 128.848 92.0597 128.582 91.391C128.316 90.7208 128.384 90.0144 128.788 89.2689C129.18 88.5451 129.739 88.1051 130.463 87.9517C131.188 87.7968 132.119 88.0255 133.256 88.6363C134.402 89.253 135.109 89.9073 135.376 90.5977C135.644 91.2882 135.589 91.983 135.211 92.6822V92.6793ZM130.458 72.7338L129.16 82.7391L132.284 83.1415L133.076 77.0431L142.639 78.2764L143.146 74.3695L130.458 72.7338ZM130.585 72.3676L133.657 71.6728L132.293 65.6757L141.698 63.5521L140.823 59.7104L128.346 62.5273L130.583 72.3676H130.585ZM127.906 45.6781C128.731 44.7328 129.097 43.7717 129.006 42.7932C128.916 41.8146 128.33 40.8578 127.25 39.9227L122.291 35.625L113.896 45.2453L116.892 47.8421L120.008 44.2725L121.64 45.6882C122.843 46.7304 123.976 47.2327 125.041 47.1936C126.104 47.1546 127.06 46.6494 127.906 45.6781ZM123.912 43.708C123.505 43.7051 123.014 43.4547 122.439 42.9567L121.709 42.3227L123.581 40.1775L124.431 40.9143C124.988 41.3977 125.276 41.832 125.295 42.217C125.314 42.6021 125.19 42.9451 124.927 43.2477C124.656 43.5589 124.317 43.7123 123.912 43.7094V43.708ZM127.715 60.0491C128.67 60.5717 129.687 60.7917 130.766 60.7106C131.844 60.6296 133.018 60.1939 134.284 59.4021C136.03 58.3135 137.082 56.9804 137.44 55.4026C137.798 53.8248 137.411 52.1369 136.281 50.3377C135.179 48.5833 133.827 47.5222 132.223 47.1546C130.62 46.7869 128.933 47.1546 127.163 48.2605C125.895 49.0508 124.996 49.9584 124.465 50.9804C123.934 52.0023 123.725 53.0344 123.836 54.0766C123.948 55.1188 124.388 56.2479 125.154 57.4667C125.908 58.6653 126.762 59.5266 127.717 60.0477L127.715 60.0491ZM127.266 53.6901C127.489 52.9866 128.149 52.2933 129.244 51.61C130.348 50.921 131.267 50.6315 132.002 50.7401C132.736 50.8501 133.315 51.2409 133.738 51.914C134.18 52.6161 134.294 53.3196 134.081 54.0245C133.867 54.728 133.251 55.3997 132.23 56.0366C131.018 56.7936 130.053 57.1208 129.338 57.0209C128.622 56.9196 128.04 56.5114 127.59 55.7934C127.151 55.0957 127.044 54.3951 127.267 53.6901H127.266ZM34.0958 73.0812C34.1103 72.3806 34.0101 71.5961 33.7937 70.7261C33.6382 70.0921 33.3114 69.4928 32.8132 68.9326C32.315 68.3724 31.6934 67.9295 30.9453 67.6038C30.1987 67.2781 29.1413 67.1029 27.7745 67.0754C26.9016 67.0581 26.0737 67.1449 25.2908 67.3389C24.5079 67.5314 23.8165 67.8542 23.2195 68.3058C22.6226 68.7575 22.1607 69.3365 21.8324 70.04C21.5041 70.7435 21.3284 71.6728 21.3052 72.8264L21.1875 78.6788L33.9781 78.935L34.0958 73.0827V73.0812ZM31.1516 74.9369L24.1622 74.7965L24.1825 73.8137C24.2029 72.7932 24.4687 72.0679 24.977 71.638C25.4869 71.2067 26.4179 71.0055 27.7731 71.033C28.7971 71.0532 29.535 71.1676 29.9881 71.3731C30.4413 71.5801 30.7551 71.8581 30.9323 72.2098C31.108 72.5616 31.1879 73.1492 31.1719 73.9714L31.153 74.9369H31.1516ZM38.2978 57.335L35.6049 56.2696L33.0878 62.591L30.7434 61.6631L33.0122 55.9642L30.5866 55.0045L28.3178 60.7034L26.4281 59.9565L28.8741 53.8132L26.3351 52.8086L22.4279 62.6228L34.3195 67.3258L38.2978 57.3336V57.335ZM41.579 46.6233C41.1389 46.6117 40.831 46.6262 40.6567 46.6696C40.3981 46.7319 40.0553 46.8911 39.6312 47.1459C39.9101 46.6132 40.0815 46.1529 40.1454 45.7649C40.2456 45.157 40.1962 44.5707 40.0002 44.0091C39.8041 43.4474 39.4351 42.9365 38.8948 42.479C38.2746 41.9536 37.6195 41.6583 36.931 41.5917C36.2426 41.5251 35.6093 41.6699 35.0312 42.026C34.4531 42.3806 33.769 43.0219 32.9774 43.9497L28.7099 48.9524L38.4562 57.2105L41.0285 54.1953L37.0734 50.8429L37.3 50.578C37.5338 50.3044 37.8185 50.1234 38.154 50.0337C38.4053 49.9729 38.8091 50.0033 39.3683 50.1263L43.7156 51.0455L46.609 47.6539L42.5449 46.7145C42.343 46.6653 42.0206 46.6334 41.5805 46.6219L41.579 46.6233ZM36.8555 47.1097C36.6086 47.5787 36.427 47.8812 36.3108 48.0173L35.2316 49.2824L33.2504 47.6033L34.3747 46.2846C34.8424 45.7374 35.2447 45.4349 35.5831 45.3784C35.9216 45.322 36.2469 45.4277 36.5621 45.694C36.7742 45.8735 36.9093 46.0964 36.9659 46.3613C37.0225 46.6262 36.9862 46.8752 36.8555 47.1068V47.1097ZM34.7102 79.8614L22.4163 83.3891L23.5129 87.183L35.8068 83.6554L34.7102 79.8614ZM32.8742 85.776L35.9753 91.0913L27.6395 95.9232L29.6265 99.3292L40.6857 92.9196L35.5962 84.1982L32.8728 85.776H32.8742Z" fill="#001689"/>
</g>
<defs>
<filter id="filter0_d_4016_13078" x="0" y="0" width="165" height="144" filterUnits="userSpaceOnUse" color-interpolation-filters="sRGB">
<feFlood flood-opacity="0" result="BackgroundImageFix"/>
<feColorMatrix in="SourceAlpha" type="matrix" values="0 0 0 0 0 0 0 0 0 0 0 0 0 0 0 0 0 0 127 0" result="hardAlpha"/>
<feOffset/>
<feColorMatrix type="matrix" values="0 0 0 0 0 0 0 0 0 0.239216 0 0 0 0 1 0 0 0 0.58 0"/>
<feBlend mode="normal" in2="BackgroundImageFix" result="effect1_dropShadow_4016_13078"/>
<feBlend mode="normal" in="SourceGraphic" in2="effect1_dropShadow_4016_13078" result="shape"/>
</filter>
</defs>
</svg>
