<?xml version="1.0" standalone="no"?>
<!DOCTYPE svg PUBLIC "-//W3C//DTD SVG 20010904//EN"
 "http://www.w3.org/TR/2001/REC-SVG-20010904/DTD/svg10.dtd">
<svg version="1.0" xmlns="http://www.w3.org/2000/svg"
 width="96.000000pt" height="96.000000pt" viewBox="0 0 96.000000 96.000000"
 preserveAspectRatio="xMidYMid meet">
<metadata>
Created by potrace 1.16, written by Peter Selinger 2001-2019
</metadata>
<g transform="translate(0.000000,96.000000) scale(0.100000,-0.100000)"
fill="white" stroke="none">
<path d="M360 895 c0 -18 -5 -25 -20 -25 -13 0 -20 -7 -20 -18 0 -13 -12 -22
-39 -31 -59 -17 -132 -80 -166 -142 -39 -73 -47 -197 -18 -275 29 -76 88 -159
179 -254 77 -79 85 -85 123 -85 34 0 47 7 81 40 40 39 50 71 28 93 -19 19 -44
14 -78 -14 l-31 -27 -60 59 c-80 78 -154 190 -167 251 -28 131 50 254 180 282
138 31 256 -66 283 -231 6 -39 29 -54 65 -43 44 14 14 164 -50 254 -30 41
-120 101 -152 101 -11 0 -18 8 -18 20 0 13 -7 20 -19 20 -10 0 -22 7 -25 16
-4 9 -13 14 -21 10 -9 -3 -15 0 -15 9 0 8 -9 15 -20 15 -15 0 -20 -7 -20 -25z"/>
<path d="M742 378 c-17 -17 -15 -63 5 -79 14 -12 7 -15 -58 -19 l-74 -5 0 -35
0 -35 73 -3 c73 -3 84 -9 57 -32 -29 -24 -12 -80 25 -80 20 0 150 130 150 151
0 19 -131 149 -151 149 -8 0 -20 -5 -27 -12z"/>
</g>
</svg>
