<svg width="24" height="24" viewBox="0 0 24 24" fill="none" xmlns="http://www.w3.org/2000/svg">
<mask id="mask0_8190_4274" style="mask-type:alpha" maskUnits="userSpaceOnUse" x="0" y="0" width="24" height="24">
<rect width="24" height="24" fill="#D9D9D9"/>
</mask>
<g mask="url(#mask0_8190_4274)">
<path d="M12 19C10.6071 19 9.4256 18.4718 8.45536 17.4153C7.48512 16.3588 7 15.0722 7 13.5556C7 12.5574 7.15179 11.5528 7.45536 10.5417C7.75893 9.53056 8.15179 8.61343 8.63393 7.79028C9.11607 6.96713 9.65476 6.2963 10.25 5.77778C10.8452 5.25926 11.4286 5 12 5C12.5833 5 13.1696 5.25926 13.7589 5.77778C14.3482 6.2963 14.8839 6.96713 15.3661 7.79028C15.8482 8.61343 16.2411 9.53056 16.5446 10.5417C16.8482 11.5528 17 12.5574 17 13.5556C17 15.0722 16.5149 16.3588 15.5446 17.4153C14.5744 18.4718 13.3929 19 12 19ZM12 17.4444C12.9881 17.4444 13.8304 17.0653 14.5268 16.3069C15.2232 15.5486 15.5714 14.6315 15.5714 13.5556C15.5714 12.8167 15.4554 12.0389 15.2232 11.2222C14.9911 10.4056 14.6994 9.65046 14.3482 8.95694C13.997 8.26343 13.6131 7.68981 13.1964 7.23611C12.7798 6.78241 12.381 6.55556 12 6.55556C11.631 6.55556 11.2351 6.78241 10.8125 7.23611C10.3899 7.68981 10.003 8.26343 9.65179 8.95694C9.3006 9.65046 9.00893 10.4056 8.77679 11.2222C8.54464 12.0389 8.42857 12.8167 8.42857 13.5556C8.42857 14.6315 8.77679 15.5486 9.47321 16.3069C10.1696 17.0653 11.0119 17.4444 12 17.4444ZM12.7143 16.6667C12.9167 16.6667 13.0863 16.5921 13.2232 16.4431C13.3601 16.294 13.4286 16.1093 13.4286 15.8889C13.4286 15.6685 13.3601 15.4838 13.2232 15.3347C13.0863 15.1856 12.9167 15.1111 12.7143 15.1111C12.119 15.1111 11.6131 14.8843 11.1964 14.4306C10.7798 13.9769 10.5714 13.4259 10.5714 12.7778C10.5714 12.5574 10.503 12.3727 10.3661 12.2236C10.2292 12.0745 10.0595 12 9.85714 12C9.65476 12 9.48512 12.0745 9.34821 12.2236C9.21131 12.3727 9.14286 12.5574 9.14286 12.7778C9.14286 13.8537 9.49107 14.7708 10.1875 15.5292C10.8839 16.2875 11.7262 16.6667 12.7143 16.6667Z" fill="#46464F"/>
<mask id="path-3-inside-1_8190_4274" fill="white">
<path d="M2.02344 8C2.02344 3.58172 5.60516 0 10.0234 0H14C18.4183 0 22 3.58172 22 8V23C22 23.5523 21.5523 24 21 24H3.02344C2.47115 24 2.02344 23.5523 2.02344 23V8Z"/>
</mask>
<path d="M2.02344 8C2.02344 3.58172 5.60516 0 10.0234 0H14C18.4183 0 22 3.58172 22 8V23C22 23.5523 21.5523 24 21 24H3.02344C2.47115 24 2.02344 23.5523 2.02344 23V8Z" stroke="#46464F" stroke-width="3.8" stroke-linejoin="round" mask="url(#path-3-inside-1_8190_4274)"/>
<path d="M8.375 21L15.6392 21" stroke="#46464F" stroke-width="1.5" stroke-linecap="round" stroke-linejoin="round"/>
</g>
</svg>
