<svg width="24" height="24" viewBox="0 0 24 24" fill="none" xmlns="http://www.w3.org/2000/svg">
<mask id="mask0_8190_4287" style="mask-type:alpha" maskUnits="userSpaceOnUse" x="0" y="0" width="24" height="24">
<rect width="24" height="24" fill="white"/>
</mask>
<g mask="url(#mask0_8190_4287)">
<path d="M5 21.0016C4.45 21.0016 3.97917 20.8057 3.5875 20.4141C3.19583 20.0224 3 19.5516 3 19.0016V5.00156C3 4.45156 3.19583 3.98073 3.5875 3.58906C3.97917 3.1974 4.45 3.00156 5 3.00156H11.525C11.8583 3.00156 12.1083 3.10573 12.275 3.31406C12.4417 3.5224 12.525 3.75156 12.525 4.00156C12.525 4.25156 12.4375 4.48073 12.2625 4.68906C12.0875 4.8974 11.8333 5.00156 11.5 5.00156H5V19.0016H19V12.4766C19 12.1432 19.1042 11.8932 19.3125 11.7266C19.5208 11.5599 19.75 11.4766 20 11.4766C20.25 11.4766 20.4792 11.5599 20.6875 11.7266C20.8958 11.8932 21 12.1432 21 12.4766V19.0016C21 19.5516 20.8042 20.0224 20.4125 20.4141C20.0208 20.8057 19.55 21.0016 19 21.0016H5ZM9 14.0016V11.5766C9 11.3099 9.05 11.0557 9.15 10.8141C9.25 10.5724 9.39167 10.3599 9.575 10.1766L18.175 1.57656C18.375 1.37656 18.6 1.22656 18.85 1.12656C19.1 1.02656 19.35 0.976562 19.6 0.976562C19.8667 0.976562 20.1208 1.02656 20.3625 1.12656C20.6042 1.22656 20.825 1.37656 21.025 1.57656L22.425 3.00156C22.6083 3.20156 22.75 3.4224 22.85 3.66406C22.95 3.90573 23 4.15156 23 4.40156C23 4.65156 22.9542 4.8974 22.8625 5.13906C22.7708 5.38073 22.625 5.60156 22.425 5.80156L13.825 14.4016C13.6417 14.5849 13.4292 14.7307 13.1875 14.8391C12.9458 14.9474 12.6917 15.0016 12.425 15.0016H10C9.71667 15.0016 9.47917 14.9057 9.2875 14.7141C9.09583 14.5224 9 14.2849 9 14.0016ZM11 13.0016H12.4L18.2 7.20156L17.5 6.50156L16.775 5.80156L11 11.5766V13.0016Z" fill="white"/>
</g>
</svg>
