<svg width="24" height="25" viewBox="0 0 24 25" fill="none" xmlns="http://www.w3.org/2000/svg">
<mask id="mask0_16085_10580" style="mask-type:alpha" maskUnits="userSpaceOnUse" x="0" y="0" width="24" height="25">
<rect y="0.5" width="24" height="24" fill="#D9D9D9"/>
</mask>
<g mask="url(#mask0_16085_10580)">
<path d="M12 21.5C10.05 21.5 8.39583 20.8208 7.0375 19.4625C5.67917 18.1042 5 16.45 5 14.5C5 13.2167 5.2125 11.925 5.6375 10.625C6.0625 9.325 6.6125 8.14583 7.2875 7.0875C7.9625 6.02917 8.71667 5.16667 9.55 4.5C10.3833 3.83333 11.2 3.5 12 3.5C12.8167 3.5 13.6375 3.83333 14.4625 4.5C15.2875 5.16667 16.0375 6.02917 16.7125 7.0875C17.3875 8.14583 17.9375 9.325 18.3625 10.625C18.7875 11.925 19 13.2167 19 14.5C19 16.45 18.3208 18.1042 16.9625 19.4625C15.6042 20.8208 13.95 21.5 12 21.5ZM12 19.5C13.3833 19.5 14.5625 19.0125 15.5375 18.0375C16.5125 17.0625 17 15.8833 17 14.5C17 13.55 16.8375 12.55 16.5125 11.5C16.1875 10.45 15.7792 9.47917 15.2875 8.5875C14.7958 7.69583 14.2583 6.95833 13.675 6.375C13.0917 5.79167 12.5333 5.5 12 5.5C11.4833 5.5 10.9292 5.79167 10.3375 6.375C9.74583 6.95833 9.20417 7.69583 8.7125 8.5875C8.22083 9.47917 7.8125 10.45 7.4875 11.5C7.1625 12.55 7 13.55 7 14.5C7 15.8833 7.4875 17.0625 8.4625 18.0375C9.4375 19.0125 10.6167 19.5 12 19.5ZM13 18.5C13.2833 18.5 13.5208 18.4042 13.7125 18.2125C13.9042 18.0208 14 17.7833 14 17.5C14 17.2167 13.9042 16.9792 13.7125 16.7875C13.5208 16.5958 13.2833 16.5 13 16.5C12.1667 16.5 11.4583 16.2083 10.875 15.625C10.2917 15.0417 10 14.3333 10 13.5C10 13.2167 9.90417 12.9792 9.7125 12.7875C9.52083 12.5958 9.28333 12.5 9 12.5C8.71667 12.5 8.47917 12.5958 8.2875 12.7875C8.09583 12.9792 8 13.2167 8 13.5C8 14.8833 8.4875 16.0625 9.4625 17.0375C10.4375 18.0125 11.6167 18.5 13 18.5Z" fill="#46464F"/>
</g>
</svg>
