<svg width="24" height="25" viewBox="0 0 24 25" fill="none" xmlns="http://www.w3.org/2000/svg">
<mask id="mask0_16085_12485" style="mask-type:alpha" maskUnits="userSpaceOnUse" x="0" y="0" width="24" height="25">
<rect y="0.5" width="24" height="24" fill="#D9D9D9"/>
</mask>
<g mask="url(#mask0_16085_12485)">
<path fill-rule="evenodd" clip-rule="evenodd" d="M13.2703 5.28815C13.806 5.02382 14.0763 4.60891 14.2243 4.21462C14.2926 4.0327 14.336 3.85272 14.3684 3.71152L14.3904 3.61432L14.3904 3.61426L14.3904 3.61424L14.3905 3.61413C14.4142 3.50886 14.4323 3.42882 14.4558 3.34757C14.5105 3.15877 14.5564 3.11013 14.5987 3.07967C14.6579 3.03694 14.851 2.93594 15.3838 2.93594C15.6632 2.93594 15.8568 2.95348 15.9891 2.97792C16.054 2.98989 16.0984 3.00249 16.1273 3.0127L16.1275 3.01279C16.1299 3.02459 16.1326 3.03951 16.1355 3.05809C16.143 3.10634 16.148 3.17242 16.154 3.25333C16.1866 3.68837 16.2512 4.55223 16.9214 5.37889C17.6894 6.32609 18.6182 6.42699 19.1629 6.48615C19.2227 6.49264 19.2778 6.49864 19.3277 6.50519C19.6005 6.54109 19.6484 6.57821 19.6629 6.59079L19.663 6.59092C19.6687 6.59585 19.7725 6.6853 19.8355 7.12013C19.8774 7.40985 19.831 7.57966 19.7789 7.68278C19.7245 7.79067 19.6296 7.89283 19.4725 7.98838C19.2371 8.13164 18.9289 8.22113 18.6127 8.27913C17.3495 6.83242 14.4718 5.10341 10.5515 6.61846C10.4329 6.37373 10.4074 6.13321 10.5532 5.84536C10.633 5.68801 10.6941 5.66054 10.7234 5.64793C10.7868 5.62066 10.8982 5.59898 11.1466 5.59898C11.2066 5.59898 11.2762 5.60104 11.3538 5.60335L11.3539 5.60335C11.8146 5.61702 12.5589 5.63911 13.2703 5.28815ZM15.3838 1.33594C14.6828 1.33594 14.1048 1.46319 13.6629 1.78188C13.2039 2.11283 13.0185 2.55876 12.9189 2.90257C12.8806 3.03495 12.8491 3.17504 12.8243 3.28546L12.8088 3.35418C12.7785 3.48641 12.7545 3.57749 12.7264 3.65237C12.6816 3.77167 12.6434 3.81327 12.5623 3.85329C12.235 4.0148 11.9399 4.00997 11.4864 4.00253C11.3822 4.00082 11.2698 3.99898 11.1466 3.99898C10.8572 3.99898 10.4694 4.01535 10.0908 4.17829C9.67818 4.3559 9.35472 4.67083 9.12602 5.12216C8.56482 6.22968 8.976 7.158 9.3277 7.69968C8.84476 8.06367 8.40009 8.49626 8.00828 8.99228C7.92444 9.09841 7.87059 9.22161 7.84809 9.34987C7.09792 9.39261 6.23019 9.53157 5.45616 9.73786C4.98422 9.86364 4.52235 10.0209 4.1304 10.2102C3.76493 10.3867 3.34979 10.6424 3.09956 11.0181C2.89642 11.3231 2.79042 11.6863 2.85463 12.0742C2.91562 12.4427 3.114 12.7342 3.32511 12.9507C3.7311 13.367 4.35392 13.6789 4.98519 13.9194C6.21333 14.3872 7.85618 14.7235 9.30149 14.902C9.6593 18.1652 9.11372 21.2027 8.48907 22.8527C8.39203 23.109 8.43295 23.3971 8.5975 23.6163C8.76206 23.8354 9.02735 23.9551 9.30055 23.9334C11.3899 23.7676 14.4562 23.0587 16.8438 21.4217C18.0468 20.5968 19.1048 19.5172 19.7572 18.1261C20.4139 16.7258 20.6333 15.0651 20.2415 13.1346C19.9808 11.8499 19.563 10.7483 19.0267 9.82886C19.4323 9.74529 19.8946 9.60451 20.3042 9.35523C20.6516 9.1439 20.9877 8.839 21.2074 8.4035C21.4296 7.96323 21.5004 7.45333 21.4189 6.89088C21.3283 6.26481 21.1251 5.74299 20.7144 5.38488C20.3144 5.03606 19.8418 4.95905 19.5364 4.91886C19.4672 4.90976 19.4016 4.90173 19.3391 4.89408L19.3391 4.89407C18.8113 4.82944 18.5054 4.79197 18.1643 4.37125C17.8346 3.96466 17.8074 3.67343 17.7693 3.26492L17.7693 3.26482C17.7567 3.12945 17.7429 2.9812 17.7164 2.81161C17.6617 2.46058 17.518 1.98594 17.0112 1.67064C16.5878 1.40725 16.0263 1.33594 15.3838 1.33594ZM10.3738 22.1911C11.1737 19.1715 11.5331 14.1447 9.57483 9.62196C10.8917 8.21163 12.7546 7.65184 14.4386 8.0736C16.2261 8.52129 17.9993 10.1307 18.6735 13.4528C19.0031 15.0774 18.8066 16.3848 18.3086 17.4468C17.8062 18.518 16.9705 19.3949 15.939 20.1021C14.2612 21.2524 12.1388 21.9025 10.3738 22.1911ZM8.72465 13.2052C8.70308 13.0774 8.67755 12.9416 8.64739 12.801C8.50397 12.1326 8.27463 11.4469 7.93618 10.9474C7.30962 10.9833 6.55031 11.1021 5.86819 11.2839C5.45665 11.3936 5.09795 11.5197 4.82629 11.651C4.69103 11.7163 4.58983 11.7769 4.51899 11.829C4.50775 11.8372 4.49781 11.8449 4.48903 11.8519C4.65142 12.0075 4.9967 12.2116 5.55478 12.4242C6.42276 12.7548 7.5828 13.0249 8.72465 13.2052ZM13.1361 13.1359C13.9645 13.1359 14.6361 12.4644 14.6361 11.6359C14.6361 10.8075 13.9645 10.1359 13.1361 10.1359C12.3076 10.1359 11.6361 10.8075 11.6361 11.6359C11.6361 12.4644 12.3076 13.1359 13.1361 13.1359Z" fill="#46464F"/>
</g>
</svg>
