<svg width="25" height="24" viewBox="0 0 25 24" fill="none" xmlns="http://www.w3.org/2000/svg">
<mask id="mask0_16085_9999" style="mask-type:alpha" maskUnits="userSpaceOnUse" x="0" y="0" width="25" height="24">
<rect x="0.21875" width="24" height="24" fill="#D9D9D9"/>
</mask>
<g mask="url(#mask0_16085_9999)">
<path d="M11.2188 10C11.7688 10 12.2396 9.80417 12.6313 9.4125C13.0229 9.02083 13.2188 8.55 13.2188 8C13.2188 7.45 13.0229 6.97917 12.6313 6.5875C12.2396 6.19583 11.7688 6 11.2188 6C10.6687 6 10.1979 6.19583 9.80625 6.5875C9.41458 6.97917 9.21875 7.45 9.21875 8C9.21875 8.55 9.41458 9.02083 9.80625 9.4125C10.1979 9.80417 10.6687 10 11.2188 10ZM11.2188 14C11.9688 14 12.6729 13.8417 13.3313 13.525C13.9896 13.2083 14.5604 12.7583 15.0437 12.175C14.4604 11.7917 13.8479 11.5 13.2063 11.3C12.5646 11.1 11.9021 11 11.2188 11C10.5354 11 9.87292 11.1 9.23125 11.3C8.58958 11.5 7.97708 11.7917 7.39375 12.175C7.87708 12.7583 8.44792 13.2083 9.10625 13.525C9.76458 13.8417 10.4688 14 11.2188 14ZM11.2188 18C8.98542 18 7.09375 17.225 5.54375 15.675C3.99375 14.125 3.21875 12.2333 3.21875 10C3.21875 7.76667 3.99375 5.875 5.54375 4.325C7.09375 2.775 8.98542 2 11.2188 2C13.4521 2 15.3438 2.775 16.8938 4.325C18.4438 5.875 19.2188 7.76667 19.2188 10C19.2188 10.9333 19.0688 11.8125 18.7688 12.6375C18.4688 13.4625 18.0521 14.2167 17.5188 14.9L21.5188 18.9C21.7021 19.0833 21.7938 19.3167 21.7938 19.6C21.7938 19.8833 21.7021 20.1167 21.5188 20.3C21.3354 20.4833 21.1021 20.575 20.8188 20.575C20.5354 20.575 20.3021 20.4833 20.1187 20.3L16.1188 16.3C15.4354 16.8333 14.6812 17.25 13.8562 17.55C13.0312 17.85 12.1521 18 11.2188 18ZM11.2188 16C12.8854 16 14.3021 15.4167 15.4688 14.25C16.6354 13.0833 17.2188 11.6667 17.2188 10C17.2188 8.33333 16.6354 6.91667 15.4688 5.75C14.3021 4.58333 12.8854 4 11.2188 4C9.55208 4 8.13542 4.58333 6.96875 5.75C5.80208 6.91667 5.21875 8.33333 5.21875 10C5.21875 11.6667 5.80208 13.0833 6.96875 14.25C8.13542 15.4167 9.55208 16 11.2188 16Z" fill="#001689"/>
</g>
</svg>
