<svg width="24" height="25" viewBox="0 0 24 25" fill="none" xmlns="http://www.w3.org/2000/svg">
<mask id="mask0_16085_4225" style="mask-type:alpha" maskUnits="userSpaceOnUse" x="0" y="0" width="24" height="25">
<rect y="0.5" width="24" height="24" fill="#D9D9D9"/>
</mask>
<g mask="url(#mask0_16085_4225)">
<path d="M3.9 11.6781C3.71667 11.4781 3.625 11.2406 3.625 10.9656C3.625 10.6906 3.71667 10.4531 3.9 10.2531L6.7 7.45312L5.625 6.37812L5.325 6.67813C5.125 6.87813 4.8875 6.97813 4.6125 6.97813C4.3375 6.97813 4.1 6.87813 3.9 6.67813C3.71667 6.49479 3.625 6.26146 3.625 5.97813C3.625 5.69479 3.71667 5.46146 3.9 5.27813L5.9 3.27813C6.1 3.07813 6.3375 2.97813 6.6125 2.97813C6.8875 2.97813 7.125 3.07813 7.325 3.27813C7.50833 3.46146 7.6 3.69479 7.6 3.97812C7.6 4.26146 7.50833 4.49479 7.325 4.67813L7.025 4.97813L8.1 6.05313L10.9 3.25313C11.1 3.05313 11.3375 2.95312 11.6125 2.95312C11.8875 2.95312 12.125 3.05313 12.325 3.25313C12.525 3.45312 12.625 3.69063 12.625 3.96563C12.625 4.24063 12.525 4.47812 12.325 4.67813L11.65 5.32812L19.025 12.7031C19.4083 13.0865 19.6 13.5573 19.6 14.1156C19.6 14.674 19.4083 15.1448 19.025 15.5281L18.325 16.2531L22.2 20.1031C22.3667 20.2698 22.4083 20.4531 22.325 20.6531C22.2417 20.8531 22.0833 20.9531 21.85 20.9531H20.825C20.625 20.9531 20.4292 20.9115 20.2375 20.8281C20.0458 20.7448 19.8833 20.6365 19.75 20.5031L16.9 17.6531L16.2 18.3781C15.8167 18.7615 15.3458 18.9531 14.7875 18.9531C14.2292 18.9531 13.7583 18.7615 13.375 18.3781L6 11.0031L5.325 11.6781C5.125 11.8615 4.8875 11.9531 4.6125 11.9531C4.3375 11.9531 4.1 11.8615 3.9 11.6781ZM7.4 9.60313L14.775 16.9781L17.6 14.1281L16.1 12.6031L14.7 14.0031C14.5 14.1865 14.2625 14.2823 13.9875 14.2906C13.7125 14.299 13.4833 14.2115 13.3 14.0281C13.1 13.8281 13 13.5906 13 13.3156C13 13.0406 13.1 12.8031 13.3 12.6031L14.7 11.2031L13.2 9.70312L11.8 11.1031C11.6 11.2865 11.3625 11.3781 11.0875 11.3781C10.8125 11.3781 10.575 11.2865 10.375 11.1031C10.1917 10.9031 10.1 10.6656 10.1 10.3906C10.1 10.1156 10.1917 9.87812 10.375 9.67812L11.775 8.27813L10.25 6.75312L7.4 9.60313Z" fill="#46464F"/>
</g>
</svg>
