<svg width="24" height="25" viewBox="0 0 24 25" fill="none" xmlns="http://www.w3.org/2000/svg">
<mask id="mask0_8242_2348" style="mask-type:alpha" maskUnits="userSpaceOnUse" x="0" y="0" width="24" height="25">
<rect y="0.5" width="24" height="24" fill="#D9D9D9"/>
</mask>
<g mask="url(#mask0_8242_2348)">
<path d="M6 20.5C5.16667 20.5 4.45833 20.2083 3.875 19.625C3.29167 19.0417 3 18.3333 3 17.5C3 16.6667 3.29167 15.9583 3.875 15.375C4.45833 14.7917 5.16667 14.5 6 14.5C6.83333 14.5 7.54167 14.7917 8.125 15.375C8.70833 15.9583 9 16.6667 9 17.5C9 18.3333 8.70833 19.0417 8.125 19.625C7.54167 20.2083 6.83333 20.5 6 20.5ZM18 20.5C17.1667 20.5 16.4583 20.2083 15.875 19.625C15.2917 19.0417 15 18.3333 15 17.5C15 16.6667 15.2917 15.9583 15.875 15.375C16.4583 14.7917 17.1667 14.5 18 14.5C18.8333 14.5 19.5417 14.7917 20.125 15.375C20.7083 15.9583 21 16.6667 21 17.5C21 18.3333 20.7083 19.0417 20.125 19.625C19.5417 20.2083 18.8333 20.5 18 20.5ZM12 10.5C11.1667 10.5 10.4583 10.2083 9.875 9.625C9.29167 9.04167 9 8.33333 9 7.5C9 6.66667 9.29167 5.95833 9.875 5.375C10.4583 4.79167 11.1667 4.5 12 4.5C12.8333 4.5 13.5417 4.79167 14.125 5.375C14.7083 5.95833 15 6.66667 15 7.5C15 8.33333 14.7083 9.04167 14.125 9.625C13.5417 10.2083 12.8333 10.5 12 10.5Z" fill="#46464F"/>
</g>
</svg>
