<svg width="24" height="24" viewBox="0 0 24 24" fill="none" xmlns="http://www.w3.org/2000/svg">
<mask id="mask0_8190_4250" style="mask-type:alpha" maskUnits="userSpaceOnUse" x="0" y="0" width="24" height="24">
<rect width="24" height="24" fill="#D9D9D9"/>
</mask>
<g mask="url(#mask0_8190_4250)">
<path d="M14.793 18.7302C15.625 19.5623 16.6413 19.9792 17.8341 19.9792C19.0269 19.9792 20.0432 19.5623 20.8752 18.7302C21.7073 17.8982 22.1242 16.8819 22.1242 15.6891C22.1242 14.9117 21.9954 14.1302 21.7388 13.3453C21.483 12.563 21.1516 11.852 20.744 11.2128C20.3365 10.574 19.8817 10.0501 19.3787 9.64361C18.8722 9.23438 18.3567 9.0206 17.8341 9.0206C17.321 9.0206 16.8081 9.23474 16.2975 9.64322C15.7893 10.0498 15.3319 10.5738 14.9242 11.2128C14.5166 11.852 14.1852 12.563 13.9294 13.3453C13.6728 14.1302 13.544 14.9117 13.544 15.6891C13.544 16.8819 13.9609 17.8982 14.793 18.7302ZM19.8471 17.7021C19.2914 18.2578 18.6229 18.5343 17.8341 18.5343C17.0454 18.5343 16.3768 18.2578 15.8211 17.7021C15.2654 17.1464 14.9889 16.4778 14.9889 15.6891C14.9889 15.1389 15.083 14.557 15.2731 13.9431C15.464 13.3264 15.7035 12.7572 15.9913 12.2352C16.279 11.7135 16.594 11.2855 16.9353 10.949C17.2772 10.6119 17.576 10.4655 17.8341 10.4655C18.1027 10.4655 18.404 10.6126 18.7397 10.9483C19.0763 11.285 19.3891 11.7132 19.6769 12.2352C19.9648 12.7572 20.2043 13.3264 20.3951 13.9431C20.5852 14.557 20.6793 15.1389 20.6793 15.6891C20.6793 16.4778 20.4028 17.1464 19.8471 17.7021ZM18.4287 18.1953C18.6294 18.1953 18.8036 18.1261 18.9428 17.987C19.0819 17.8478 19.1512 17.6736 19.1512 17.4729C19.1512 17.2722 19.0819 17.098 18.9428 16.9588C18.8036 16.8197 18.6294 16.7505 18.4287 16.7505C17.9667 16.7505 17.5782 16.5902 17.2556 16.2676C16.933 15.945 16.7727 15.5565 16.7727 15.0945C16.7727 14.8938 16.7035 14.7196 16.5643 14.5804C16.4252 14.4413 16.251 14.372 16.0503 14.372C15.8496 14.372 15.6754 14.4413 15.5362 14.5804C15.3971 14.7196 15.3278 14.8938 15.3278 15.0945C15.3278 15.9508 15.6311 16.6845 16.2349 17.2883C16.8387 17.8921 17.5724 18.1953 18.4287 18.1953Z" fill="#46464F" stroke="#46464F" stroke-width="0.25568"/>
<path d="M8.48659 21.1625C6.67961 21.1625 5.14677 20.4772 3.88806 19.1066C2.62935 17.736 2 16.0669 2 14.0993C2 12.8044 2.19691 11.501 2.59074 10.1893C2.98457 8.87757 3.49423 7.68776 4.11973 6.61988C4.74522 5.55199 5.44407 4.68171 6.21629 4.00903C6.9885 3.33634 7.74527 3 8.48659 3C9.24336 3 10.004 3.33634 10.7685 4.00903C11.533 4.68171 12.228 5.55199 12.8535 6.61988C13.479 7.68776 13.9886 8.87757 14.3824 10.1893C14.7763 11.501 14.9732 12.8044 14.9732 14.0993C14.9732 16.0669 14.3438 17.736 13.0851 19.1066C11.8264 20.4772 10.2936 21.1625 8.48659 21.1625ZM8.48659 19.1444C9.76847 19.1444 10.8611 18.6525 11.7646 17.6687C12.6681 16.6849 13.1199 15.4951 13.1199 14.0993C13.1199 13.1407 12.9693 12.1317 12.6681 11.0722C12.367 10.0127 11.9886 9.03313 11.533 8.13342C11.0774 7.2337 10.5793 6.48955 10.0387 5.90095C9.49819 5.31235 8.98081 5.01805 8.48659 5.01805C8.00782 5.01805 7.4943 5.31235 6.94603 5.90095C6.39776 6.48955 5.89582 7.2337 5.44021 8.13342C4.98461 9.03313 4.60622 10.0127 4.30506 11.0722C4.00389 12.1317 3.85331 13.1407 3.85331 14.0993C3.85331 15.4951 4.30506 16.6849 5.20855 17.6687C6.11204 18.6525 7.20472 19.1444 8.48659 19.1444ZM9.41325 18.1354C9.6758 18.1354 9.89588 18.0387 10.0735 17.8453C10.2511 17.6519 10.3399 17.4122 10.3399 17.1264C10.3399 16.8405 10.2511 16.6008 10.0735 16.4074C9.89588 16.214 9.6758 16.1173 9.41325 16.1173C8.64104 16.1173 7.98465 15.823 7.4441 15.2344C6.90356 14.6458 6.63328 13.9311 6.63328 13.0903C6.63328 12.8044 6.54448 12.5647 6.36687 12.3713C6.18926 12.1779 5.96918 12.0812 5.70662 12.0812C5.44407 12.0812 5.22399 12.1779 5.04638 12.3713C4.86877 12.5647 4.77997 12.8044 4.77997 13.0903C4.77997 14.4861 5.23171 15.6759 6.1352 16.6597C7.03869 17.6435 8.13137 18.1354 9.41325 18.1354Z" fill="#46464F"/>
</g>
</svg>
