<svg width="20" height="21" viewBox="0 0 20 21" fill="none" xmlns="http://www.w3.org/2000/svg">
<path d="M3 18V19.25C3 19.5333 2.90417 19.7708 2.7125 19.9625C2.52083 20.1542 2.28333 20.25 2 20.25H1C0.716667 20.25 0.479167 20.1542 0.2875 19.9625C0.0958333 19.7708 0 19.5333 0 19.25V17C0 16.7167 0.0958333 16.4792 0.2875 16.2875C0.479167 16.0958 0.716667 16 1 16H19C19.2833 16 19.5208 16.0958 19.7125 16.2875C19.9042 16.4792 20 16.7167 20 17V19.25C20 19.5333 19.9042 19.7708 19.7125 19.9625C19.5208 20.1542 19.2833 20.25 19 20.25H18C17.7167 20.25 17.4792 20.1542 17.2875 19.9625C17.0958 19.7708 17 19.5333 17 19.25V18H11.5V19.25C11.5 19.5333 11.4042 19.7708 11.2125 19.9625C11.0208 20.1542 10.7833 20.25 10.5 20.25H9.5C9.21667 20.25 8.97917 20.1542 8.7875 19.9625C8.59583 19.7708 8.5 19.5333 8.5 19.25V18H3ZM4 14C3.71667 14 3.47917 13.9042 3.2875 13.7125C3.09583 13.5208 3 13.2833 3 13V1C3 0.716667 3.09583 0.479167 3.2875 0.2875C3.47917 0.0958333 3.71667 0 4 0H16C16.2833 0 16.5208 0.0958333 16.7125 0.2875C16.9042 0.479167 17 0.716667 17 1V13C17 13.2833 16.9042 13.5208 16.7125 13.7125C16.5208 13.9042 16.2833 14 16 14H4ZM5 12H15V2H5V12ZM12 6C12.2833 6 12.5208 5.90417 12.7125 5.7125C12.9042 5.52083 13 5.28333 13 5C13 4.71667 12.9042 4.47917 12.7125 4.2875C12.5208 4.09583 12.2833 4 12 4H8C7.71667 4 7.47917 4.09583 7.2875 4.2875C7.09583 4.47917 7 4.71667 7 5C7 5.28333 7.09583 5.52083 7.2875 5.7125C7.47917 5.90417 7.71667 6 8 6H12Z" fill="#46464F"/>
</svg>
