<svg width="24" height="25" viewBox="0 0 24 25" fill="none" xmlns="http://www.w3.org/2000/svg">
<mask id="mask0_16085_11779" style="mask-type:alpha" maskUnits="userSpaceOnUse" x="0" y="0" width="24" height="25">
<rect y="0.5" width="24" height="24" fill="#D9D9D9"/>
</mask>
<g mask="url(#mask0_16085_11779)">
<path d="M4 9.49688C3.71667 9.49688 3.47917 9.40104 3.2875 9.20937C3.09583 9.01771 3 8.78021 3 8.49688C3 8.21354 3.09583 7.97604 3.2875 7.78438C3.47917 7.59271 3.71667 7.49688 4 7.49688L7 7.49688C7.55 7.49688 8.02083 7.69271 8.4125 8.08437C8.80417 8.47604 9 8.94688 9 9.49688H4ZM6 18.4969C6.83333 18.4969 7.54167 18.2052 8.125 17.6219C8.70833 17.0385 9 16.3302 9 15.4969C9 14.6635 8.70833 13.9552 8.125 13.3719C7.54167 12.7885 6.83333 12.4969 6 12.4969C5.16667 12.4969 4.45833 12.7885 3.875 13.3719C3.29167 13.9552 3 14.6635 3 15.4969C3 16.3302 3.29167 17.0385 3.875 17.6219C4.45833 18.2052 5.16667 18.4969 6 18.4969ZM19.5 18.4969C19.9167 18.4969 20.2708 18.351 20.5625 18.0594C20.8542 17.7677 21 17.4135 21 16.9969C21 16.5802 20.8542 16.226 20.5625 15.9344C20.2708 15.6427 19.9167 15.4969 19.5 15.4969C19.0833 15.4969 18.7292 15.6427 18.4375 15.9344C18.1458 16.226 18 16.5802 18 16.9969C18 17.4135 18.1458 17.7677 18.4375 18.0594C18.7292 18.351 19.0833 18.4969 19.5 18.4969ZM6 16.9969C5.58333 16.9969 5.22917 16.851 4.9375 16.5594C4.64583 16.2677 4.5 15.9135 4.5 15.4969C4.5 15.0802 4.64583 14.726 4.9375 14.4344C5.22917 14.1427 5.58333 13.9969 6 13.9969C6.41667 13.9969 6.77083 14.1427 7.0625 14.4344C7.35417 14.726 7.5 15.0802 7.5 15.4969C7.5 15.9135 7.35417 16.2677 7.0625 16.5594C6.77083 16.851 6.41667 16.9969 6 16.9969ZM20 13.5219C20.4333 13.6052 20.7917 13.7177 21.075 13.8594C21.3583 14.001 21.6667 14.2302 22 14.5469V8.49688C22 7.94688 21.8042 7.47604 21.4125 7.08438C21.0208 6.69271 20.55 6.49688 20 6.49688H13.7L12.65 5.39688L14.05 3.99687L13.35 3.29687L9.8 6.84687L10.55 7.54687L11.95 6.14688L13 7.19688V9.49688C13 10.0469 12.8042 10.5177 12.4125 10.9094C12.0208 11.301 11.55 11.4969 11 11.4969H8.975C9.35833 11.7802 9.66667 12.0719 9.9 12.3719C10.1333 12.6719 10.3667 13.0469 10.6 13.4969H11C12.1 13.4969 13.0417 13.1052 13.825 12.3219C14.6083 11.5385 15 10.5969 15 9.49688V8.49688L20 8.49688V13.5219ZM16.025 16.4969C16.125 16.0469 16.2458 15.6844 16.3875 15.4094C16.5292 15.1344 16.75 14.8302 17.05 14.4969H10.9C10.9667 14.8802 11 15.2135 11 15.4969C11 15.7802 10.9667 16.1135 10.9 16.4969H16.025ZM19.5 20.4969C18.5333 20.4969 17.7083 20.1552 17.025 19.4719C16.3417 18.7885 16 17.9635 16 16.9969C16 16.0302 16.3417 15.2052 17.025 14.5219C17.7083 13.8385 18.5333 13.4969 19.5 13.4969C20.4667 13.4969 21.2917 13.8385 21.975 14.5219C22.6583 15.2052 23 16.0302 23 16.9969C23 17.9635 22.6583 18.7885 21.975 19.4719C21.2917 20.1552 20.4667 20.4969 19.5 20.4969ZM6 20.4969C4.61667 20.4969 3.4375 20.0094 2.4625 19.0344C1.4875 18.0594 1 16.8802 1 15.4969C1 14.1135 1.4875 12.9344 2.4625 11.9594C3.4375 10.9844 4.61667 10.4969 6 10.4969C7.38333 10.4969 8.5625 10.9844 9.5375 11.9594C10.5125 12.9344 11 14.1135 11 15.4969C11 16.8802 10.5125 18.0594 9.5375 19.0344C8.5625 20.0094 7.38333 20.4969 6 20.4969Z" fill="#46464F"/>
</g>
</svg>
